<?xml version="1.0" encoding="UTF-8"?>
<!-- Generated by Pixelmator Pro 3.5.8 -->
<svg width="46" height="51" viewBox="0 0 46 51" xmlns="http://www.w3.org/2000/svg">
    <g id="-">
        <linearGradient id="linearGradient1" x1="39.071814" y1="39" x2="7" y2="39" gradientUnits="userSpaceOnUse">
            <stop offset="1e-05" stop-color="#00cbff" stop-opacity="1"/>
            <stop offset="1" stop-color="#6850ff" stop-opacity="1"/>
        </linearGradient>
        <path id="path1" fill="url(#linearGradient1)" stroke="none" d="M 39.071815 38.988358 C 39.071815 44.031151 35.313408 47.953323 30.370522 47.953323 C 28.593819 47.953323 26.976561 47.439709 25.632633 46.575912 C 23.332043 45.081715 22.352568 43.09729 21.623657 40.505844 C 21.168085 38.941628 20.872002 37.447475 20.097534 36.140083 C 19.61915 35.252899 18.935802 34.50584 18.070259 34.015564 C 17.728567 33.80545 17.341356 33.642029 16.9541 33.548641 C 16.544085 33.431908 16.134069 33.385216 15.701293 33.385216 C 12.740115 33.385216 10.576187 36.070068 10.576187 39.011692 C 10.576187 41.95332 12.717356 44.638168 15.701293 44.638168 C 17.683004 44.638168 19.300255 43.447472 20.143045 41.789898 C 20.73531 42.933865 21.395897 44.077831 22.1248 45.221794 C 20.553061 46.94944 18.32078 48 15.701293 48 C 10.690074 48 7 44.124508 7 39.035034 C 7 33.992222 10.758412 30.046694 15.701293 30.046694 C 17.455236 30.046694 19.04969 30.536964 20.393618 31.400782 C 22.990343 33.058369 23.855938 35.322968 24.675919 38.241253 C 25.040422 39.548645 25.35931 40.786015 25.997086 41.883305 C 26.475424 42.770443 27.158764 43.51754 28.024359 44.007813 C 28.366007 44.217915 28.753263 44.381336 29.140474 44.474697 C 29.550489 44.591442 29.960506 44.638168 30.393274 44.638168 C 33.354458 44.638168 35.518417 41.95332 35.518417 39.011692 C 35.518417 36.070068 33.354458 33.385216 30.393274 33.385216 C 28.411572 33.385216 26.794313 34.575878 25.951529 36.256828 C 25.35931 35.112865 24.698723 33.968872 23.969818 32.824909 C 25.495949 31.050587 27.751028 30 30.370522 30 C 35.381725 30 39.071815 33.875492 39.071815 38.988358 Z"/>
    </g>
    <g id="blocknotificationerror">
        <path id="path2" fill="#d9d9d9" stroke="none" d="M 22.5 29 C 29.403559 29 35 23.403559 35 16.5 C 35 9.596443 29.403559 4 22.5 4 C 15.596441 4 10 9.596443 10 16.5 C 10 23.403559 15.596441 29 22.5 29 Z M 22.5 24 C 21.671574 24 21 23.328426 21 22.5 C 21 21.671574 21.671574 21 22.5 21 C 23.328426 21 24 21.671574 24 22.5 C 24 23.328426 23.328426 24 22.5 24 Z M 24 18.5 C 24 19.328426 23.328426 20 22.5 20 C 21.671574 20 21 19.328426 21 18.5 L 21 10.5 C 21 9.671574 21.671574 9 22.5 9 C 23.328426 9 24 9.671574 24 10.5 Z"/>
    </g>
</svg>
