<svg xmlns="http://www.w3.org/2000/svg" xmlns:xlink="http://www.w3.org/1999/xlink" fill="none" version="1.1" width="562" height="238" viewBox="0 0 562 238"><defs><clipPath id="master_svg0_28_16244"><rect x="0" y="0" width="562" height="238" rx="0"/></clipPath><clipPath id="master_svg1_28_16462"><rect x="226" y="86" width="100" height="19.384614944458008" rx="0"/></clipPath></defs><g clip-path="url(#master_svg0_28_16244)"><g><rect x="1" y="1" width="560" height="237" rx="0" fill="#0E77B8" fill-opacity="1"/></g><g><g><path d="M244.52782,127.38949083251953Q241.98804,127.38949083251953,240.34061,126.70309083251954Q238.69319,126.01659083251953,237.869476,124.89549083251953Q237.0457611,123.77429083251953,237,122.51589083251953Q237,122.30989083251953,237.137283,122.17269083251954Q237.29744,122.01249083251953,237.503372,122.01249083251953L241.85074,122.01249083251953Q242.21684,122.01249083251953,242.39987,122.12689083251954Q242.6058,122.21839083251953,242.83461,122.40149083251953Q243.06342,122.56159083251953,243.29224,122.69889083251954Q243.54393,122.81329083251953,243.84137,122.88199083251953Q244.1617,122.92779083251953,244.5278,122.92779083251953Q245.30576,122.92779083251953,245.76337,122.76759083251953Q246.24385,122.58459083251952,246.24385,122.28709083251954Q246.24385,122.01249083251953,245.96928,121.82949083251953Q245.71759,121.64639083251953,245.07693,121.50919083251954Q244.43626,121.34899083251953,243.29222,121.21169083251954Q241.48463,120.95999083251954,240.15755,120.36510083251953Q238.83044,119.77020083251954,238.09825,118.74056083251953Q237.388947,117.68804083251953,237.388947,116.17790083251953Q237.388947,114.62200083251953,238.25842,113.43219083251954Q239.15079,112.24238083251953,240.70668,111.57884183251953Q242.28546,110.91529083251953,244.36761,110.91529083251953Q246.08368,110.91529083251953,247.4108,111.37290983251953Q248.7379,111.80764783251954,249.6531,112.53983083251953Q250.5683,113.24914083251953,251.0488,114.07285083251953Q251.5293,114.89658083251953,251.5522,115.65164083251953Q251.5522,115.85756083251952,251.3921,116.01773083251953Q251.2548,116.15502083251953,251.0717,116.15502083251953L246.49554,116.15502083251953Q246.17522,116.15502083251953,245.96928,116.06352083251953Q245.78624,115.97202083251953,245.58031,115.78895083251953Q245.4659,115.67455083251953,245.14557,115.53726083251954Q244.84811,115.37710083251953,244.36761,115.37710083251953Q243.79559,115.37710083251953,243.52103,115.56014083251954Q243.26933,115.72031083251953,243.26933,116.01776083251953Q243.26933,116.22369083251954,243.47527,116.40674083251953Q243.68118,116.58977083251953,244.23033,116.72707083251953Q244.77946,116.86435083251953,245.80911,117.00163083251954Q248.0972,117.27620083251954,249.47,117.89398083251953Q250.8658,118.48889083251953,251.4836,119.49565083251953Q252.1242,120.50241083251953,252.1242,121.98969083251953Q252.1242,123.65999083251953,251.1175,124.87269083251954Q250.1336,126.08539083251954,248.4175,126.74889083251954Q246.70146,127.38959083251953,244.52782,127.38949083251953Z" fill="#FFFFFF" fill-opacity="1"/></g><g><path d="M254.18356363964844,127.16063742675782Q253.93186963964843,127.16063742675782,253.74882463964843,126.97763742675781Q253.56578063964844,126.79453742675781,253.56578063964844,126.54293742675782L253.56578063964844,111.53302042675782Q253.56578063964844,111.28132642675781,253.74882463964843,111.09828942675782Q253.93186963964843,110.91523742675781,254.18356363964844,110.91523742675781L258.27924063964844,110.91523742675781Q258.5309106396484,110.91523742675781,258.71399063964844,111.09828942675782Q258.89703063964845,111.28132642675781,258.89703063964845,111.53302042675782L258.89703063964845,126.54293742675782Q258.89703063964845,126.79453742675781,258.71399063964844,126.97763742675781Q258.53094063964846,127.16063742675782,258.27924063964844,127.16063742675782L254.18356363964844,127.16063742675782Z" fill="#FFFFFF" fill-opacity="1"/></g><g><path d="M262.80969253125,127.16069999999999Q262.55801353125,127.16069999999999,262.37493853125,126.9776Q262.19189453125,126.7946,262.19189453125,126.5429L262.19189453125,115.8804Q262.19189453125,115.62871,262.37493853125,115.44566Q262.55798353125,115.26261,262.80969253125,115.26261L266.90536453125,115.26261Q267.15704453125,115.26261,267.34008453125,115.44566Q267.52313453125,115.62872,267.52313453125,115.8804L267.52313453125,126.5429Q267.52313453125,126.7946,267.34008453125,126.9776Q267.15704453125,127.16069999999999,266.90536453125,127.16069999999999L262.80969253125,127.16069999999999ZM262.92410253125,114.00417Q262.67242453125,114.00417,262.48934953125,113.82111Q262.30630453125,113.63808,262.30630453125,113.38638L262.30630453125,110.61779Q262.30630453125,110.366096,262.48934953125,110.183052Q262.67239353125,110,262.92410253125,110L266.79098453125,110Q267.04266453125,110,267.22573453125,110.183052Q267.40878453125,110.366104,267.40878453125,110.61779L267.40878453125,113.38638Q267.40878453125,113.63808,267.22573453125,113.82111Q267.04269453125,114.00417,266.79098453125,114.00417L262.92410253125,114.00417Z" fill="#FFFFFF" fill-opacity="1"/></g><g><path d="M275.82888302734375,127.38950584716797Q274.08993302734376,127.38950584716797,272.67132302734376,126.79460584716797Q271.25271302734376,126.17680584716797,270.38324002734373,125.00987584716796Q269.51376302734377,123.84294584716797,269.42224122734376,122.14976584716797Q269.39935302734375,121.78367584716797,269.39935302734375,121.23453584716796Q269.39935302734375,120.68538584716796,269.42224122734376,120.29641584716796Q269.51373302734373,118.60322584716796,270.36035202734377,117.43630584716797Q271.22982302734374,116.24649584716796,272.64843302734374,115.65159584716797Q274.08993302734376,115.03380584716797,275.82888302734375,115.03380584716797Q277.63647302734375,115.03380584716797,278.89492302734374,115.56006584716796Q280.17625302734376,116.06344584716797,280.95415302734375,116.81851584716797Q281.75505302734376,117.55071584716796,282.1211530273437,118.28289584716796Q282.51005302734376,119.01509584716797,282.53295302734375,119.47270584716797Q282.55585302734374,119.72440584716797,282.34995302734376,119.90743584716797Q282.16685302734373,120.09049584716797,281.91515302734376,120.09049584716797L277.45343302734375,120.09049584716797Q277.2017530273437,120.09049584716797,277.0415630273437,119.97608584716797Q276.90426302734375,119.83879584716797,276.78988302734376,119.63286584716796Q276.6297330273438,119.31253584716796,276.44668302734374,119.12948584716797Q276.28653302734375,118.94644584716796,275.94330302734375,118.94644584716796Q275.41705302734374,118.94644584716796,275.23398302734375,119.33541584716797Q275.0509330273438,119.72439584716797,275.02804302734376,120.41081584716797Q275.00515302734374,121.39469584716797,275.02804302734376,122.03536584716797Q275.0738530273438,122.76756584716797,275.23398302734375,123.13365584716797Q275.41702302734376,123.47685584716797,275.94330302734375,123.47685584716797Q276.35516302734374,123.47685584716797,276.49243302734374,123.29382584716797Q276.6525830273437,123.11077584716797,276.78988302734376,122.79044584716797Q276.88138302734376,122.58450584716797,277.0415630273437,122.47009584716797Q277.20172302734375,122.33281584716796,277.45343302734375,122.33281584716796L281.91515302734376,122.33281584716796Q282.16685302734373,122.33281584716796,282.34995302734376,122.51586584716797Q282.55585302734374,122.69890584716796,282.53295302734375,122.95059584716797Q282.51005302734376,123.24806584716796,282.28135302734376,123.79720584716797Q282.07535302734374,124.32346584716797,281.59485302734373,124.94124584716796Q281.1372530273438,125.55900584716797,280.35935302734373,126.13110584716797Q279.58135302734377,126.68020584716797,278.46020302734377,127.04630584716797Q277.33905302734377,127.38950584716797,275.82888302734375,127.38950584716797Z" fill="#FFFFFF" fill-opacity="1"/></g><g><path d="M290.1523484375,127.38946688232421Q287.1549384375,127.38946688232421,285.3702384375,125.92516688232422Q283.6083984375,124.43785688232421,283.6083984375,121.23453688232422Q283.6083984375,121.18873688232422,283.6083984375,121.14303688232422Q283.6083984375,121.09723688232422,283.6083984375,121.07443688232422Q283.6542053375,119.10667688232422,284.4549864375,117.75669688232422Q285.2786884375,116.40672688232422,286.7201884375,115.72029888232422Q288.1845384375,115.03386688232422,290.1294284375,115.03386688232422Q292.3717684375,115.03386688232422,293.8131984375,115.90334288232422Q295.2546984375,116.74992688232422,295.9411984375,118.16855688232422Q296.6504984375,119.56428688232423,296.6504984375,121.25747688232421L296.6504984375,121.94389688232422Q296.6504984375,122.19558688232422,296.4673984375,122.37862688232421Q296.2843984375,122.56168688232422,296.0326984375,122.56168688232422L289.2141684375,122.56168688232422Q289.2141684375,122.58458688232422,289.2141684375,122.60748688232422Q289.2141684375,122.63038688232422,289.2141684375,122.67608688232421Q289.2141684375,123.13370688232422,289.2827784375,123.45403688232422Q289.3742684375,123.75149688232422,289.5802284375,123.91164688232422Q289.7861584375,124.07182688232422,290.1064784375,124.07182688232422Q290.2437484375,124.07182688232422,290.3352984375,124.02602688232422Q290.4497084375,123.98022688232422,290.5412284375,123.88873688232422Q290.6556384375,123.77432688232422,290.7700184375,123.65991688232421Q290.9759484375,123.45398688232422,291.1132484375,123.40822688232421Q291.2505184375,123.33962688232421,291.5251184375,123.33962688232421L295.8495984375,123.33962688232421Q296.0783984375,123.33962688232421,296.2156984375,123.47690688232422Q296.3758984375,123.61419688232422,296.3529984375,123.84300688232422Q296.3300984375,124.27773688232422,295.9410984375,124.89552688232422Q295.57499843749997,125.49046688232421,294.8198984375,126.06246688232422Q294.0648984375,126.63446688232422,292.8979484375,127.02346688232421Q291.7310184375,127.38956688232422,290.1523484375,127.38946688232421ZM289.2142284375,119.70151688232421L291.0447084375,119.70151688232421L291.0447084375,119.67860688232422Q291.0447084375,119.17523688232421,290.9302984375,118.85488688232422Q290.8388084375,118.53455688232422,290.6328384375,118.39726688232422Q290.4269084375,118.23711688232422,290.1294584375,118.23711688232422Q289.8319984375,118.23711688232422,289.6260684375,118.39726688232422Q289.4201384375,118.53455688232422,289.3057284375,118.85488688232422Q289.2142284375,119.17523688232421,289.2142284375,119.67860688232422L289.2142284375,119.70151688232421Z" fill="#FFFFFF" fill-opacity="1"/></g><g><path d="M298.86996474804687,127.16071138916016Q298.6182857480469,127.16071138916016,298.43521074804687,126.97761138916016Q298.2521667480469,126.79461138916015,298.2521667480469,126.54291138916015L298.2521667480469,115.88040138916016Q298.2521667480469,115.62870738916016,298.43521074804687,115.44566338916016Q298.61825574804686,115.26261138916016,298.86996474804687,115.26261138916016L302.8741167480469,115.26261138916016Q303.12579674804687,115.26261138916016,303.30886674804685,115.44566338916016Q303.4919167480469,115.62871538916016,303.4919167480469,115.88040138916016L303.4919167480469,116.68123138916016Q304.2240867480469,116.04055738916016,305.11645674804686,115.65158838916015Q306.0317067480469,115.26261138916016,307.06133674804687,115.26261138916016L308.1596067480469,115.26261138916016Q308.4112667480469,115.26261138916016,308.59436674804687,115.44566338916016Q308.77736674804686,115.62871538916016,308.77736674804686,115.88040138916016L308.77736674804686,119.44982138916015Q308.77736674804686,119.70151138916016,308.59436674804687,119.88455138916015Q308.4112667480469,120.06760138916016,308.1596067480469,120.06760138916016L305.20797674804686,120.06760138916016Q304.5215467480469,120.06760138916016,304.1783167480469,120.41081138916016Q303.83511674804686,120.75403138916016,303.83511674804686,121.44045138916016L303.83511674804686,126.54291138916015Q303.83511674804686,126.79461138916015,303.6520667480469,126.97761138916016Q303.4690267480469,127.16071138916016,303.21734674804685,127.16071138916016L298.86996474804687,127.16071138916016Z" fill="#FFFFFF" fill-opacity="1"/></g></g><g clip-path="url(#master_svg1_28_16462)"><g><path d="M260.62099999999907,89.8817159375C260.62099999999907,89.8817159375,260.62099999999907,93.8393059375,260.62099999999907,93.8393059375C260.62099999999907,93.8393059375,268.6649999999991,93.8393059375,268.6649999999991,93.8393059375C268.6649999999991,93.8393059375,268.6649999999991,97.3683859375,268.6649999999991,97.3683859375C268.6649999999991,97.3683859375,260.62099999999907,97.3683859375,260.62099999999907,97.3683859375C260.62099999999907,97.3683859375,260.62099999999907,101.5779859375,260.62099999999907,101.5779859375C260.62099999999907,101.5779859375,270.52319999999906,101.5779859375,270.52319999999906,101.5779859375C270.52319999999906,101.5779859375,270.52319999999906,105.1070859375,270.52319999999906,105.1070859375C270.52319999999906,105.1070859375,256.9290999999991,105.1070859375,256.9290999999991,105.1070859375C256.9290999999991,105.1070859375,256.9290999999991,104.9306859375,256.9290999999991,104.9306859375C256.9290999999991,98.7799859375,256.9290999999991,92.65455593749999,256.9290999999991,86.5039069375C256.9290999999991,86.5039069375,256.9290999999991,86.3274539375,256.9290999999991,86.3274539375C256.9290999999991,86.3274539375,270.52319999999906,86.3274539375,270.52319999999906,86.3274539375C270.52319999999906,86.3274539375,270.52319999999906,89.8565159375,270.52319999999906,89.8565159375C270.52319999999906,89.8565159375,260.62099999999907,89.8565159375,260.62099999999907,89.8565159375C260.62099999999907,89.8565159375,260.62099999999907,89.8817159375,260.62099999999907,89.8817159375ZM229.6674799999991,89.8817159375C229.6674799999991,89.8817159375,229.6674799999991,93.8393059375,229.6674799999991,93.8393059375C229.6674799999991,93.8393059375,237.7114999999991,93.8393059375,237.7114999999991,93.8393059375C237.7114999999991,93.8393059375,237.7114999999991,97.3683859375,237.7114999999991,97.3683859375C237.7114999999991,97.3683859375,229.6674799999991,97.3683859375,229.6674799999991,97.3683859375C229.6674799999991,97.3683859375,229.6674799999991,101.5779859375,229.6674799999991,101.5779859375C229.6674799999991,101.5779859375,239.5696999999991,101.5779859375,239.5696999999991,101.5779859375C239.5696999999991,101.5779859375,239.5696999999991,105.1070859375,239.5696999999991,105.1070859375C239.5696999999991,105.1070859375,225.9999999999991,105.1070859375,225.9999999999991,105.1070859375C225.9999999999991,105.1070859375,225.9999999999991,104.9306859375,225.9999999999991,104.9306859375C225.9999999999991,98.8051859375,225.9999999999991,92.65455593749999,225.9999999999991,86.5291149375C225.9999999999991,86.5291149375,225.9999999999991,86.3274539375,225.9999999999991,86.3274539375C225.9999999999991,86.3274539375,239.5940999999991,86.3274539375,239.5940999999991,86.3274539375C239.5940999999991,86.3274539375,239.5940999999991,89.8565159375,239.5940999999991,89.8565159375C239.5940999999991,89.8565159375,229.6674799999991,89.8565159375,229.6674799999991,89.8565159375C229.6674799999991,89.8565159375,229.6674799999991,89.8817159375,229.6674799999991,89.8817159375ZM245.7554999999991,101.5779859375C245.7554999999991,101.5779859375,255.0952999999991,101.5779859375,255.0952999999991,101.5779859375C255.0952999999991,101.5779859375,255.0952999999991,105.1070859375,255.0952999999991,105.1070859375C255.0952999999991,105.1070859375,242.08799999999908,105.1070859375,242.08799999999908,105.1070859375C242.08799999999908,105.1070859375,242.08799999999908,104.9306859375,242.08799999999908,104.9306859375C242.08799999999908,98.7799859375,242.08799999999908,92.65455593749999,242.08799999999908,86.5039069375C242.08799999999908,86.5039069375,242.08799999999908,86.3274539375,242.08799999999908,86.3274539375C242.08799999999908,86.3274539375,245.7554999999991,86.3274539375,245.7554999999991,86.3274539375C245.7554999999991,86.3274539375,245.7554999999991,101.5779859375,245.7554999999991,101.5779859375ZM285.5353999999991,97.8472859375C285.5353999999991,97.8472859375,280.1075999999991,97.8472859375,280.1075999999991,97.8472859375C280.1075999999991,97.8472859375,280.1075999999991,94.5703259375,280.1075999999991,94.5703259375C280.1075999999991,94.5703259375,289.2762999999991,94.5703259375,289.2762999999991,94.5703259375C289.2762999999991,94.5703259375,289.2762999999991,105.1322859375,289.2762999999991,105.1322859375C289.2762999999991,105.1322859375,286.1466999999991,105.1322859375,286.1466999999991,105.1322859375C286.1466999999991,105.1322859375,286.1466999999991,102.7375859375,286.1466999999991,102.7375859375C284.8996999999991,104.5524859375,282.9681999999991,105.2330859375,280.7676999999991,105.3591859375C278.4938999999991,105.4851859375,276.2199999999991,104.6028859375,274.5084999999991,103.0652859375C272.5280999999991,101.2502859375,271.5500999999991,98.7547859375,271.5500999999991,96.0575759375C271.5500999999991,90.4614959375,275.1197999999991,86.1005859375,280.6698999999991,86.1005859375C282.89479999999907,86.1005859375,284.9486999999991,86.8063979375,286.6356999999991,88.2936459375C287.27139999999906,88.8482059375,288.0537999999991,89.7304759375,288.4449999999991,90.5119059375C288.4449999999991,90.5119059375,288.5182999999991,90.6631559375,288.5182999999991,90.6631559375C288.5182999999991,90.6631559375,285.38869999999906,92.73017593750001,285.38869999999906,92.73017593750001C285.38869999999906,92.73017593750001,285.2908999999991,92.5537259375,285.2908999999991,92.5537259375C283.7750999999991,89.4027759375,279.4962999999991,88.7725859375,277.10019999999906,91.2177259375C276.0243999999991,92.3016459375,275.3153999999991,94.0409659375,275.3153999999991,95.6038359375C275.3153999999991,96.9145859375,275.70659999999907,98.4018859375,276.3911999999991,99.5109859375C277.36919999999907,101.0738859375,278.86059999999907,101.8048859375,280.6698999999991,101.8048859375C283.2126999999991,101.7544859375,284.8752999999991,100.1663859375,285.5353999999991,97.8472859375Z" fill-rule="evenodd" fill="#FFFFFF" fill-opacity="1"/></g><g><path d="M326.00010703125,95.70491C326.00010703125,101.1497,321.96590703125,105.3846,316.66030703125,105.3846C314.75320703125,105.3846,313.01720703125,104.8301,311.57470703125,103.8974C309.10530703125,102.2841,308.05390703125,100.1414,307.27150703125,97.3434C306.78250703125,95.6545,306.46470703125,94.04121,305.63340703125,92.62959000000001C305.11990703125,91.6717,304.38640703125,90.86506,303.45730703125,90.3357C303.09060703125,90.10883,302.67490703125,89.93238,302.25930703125,89.83155C301.81920703125,89.70551,301.37910703125,89.6551,300.91455703125,89.6551C297.73607703125,89.6551,295.41333703125,92.55396999999999,295.41333703125,95.73012C295.41333703125,98.9063,297.71162703125,101.8051,300.91455703125,101.8051C303.04170703125,101.8051,304.77760703125,100.5196,305.68230703125,98.7298C306.31800703125,99.965,307.02700703125,101.2002,307.80940703125,102.4353C306.12240703125,104.3007,303.72630703125,105.435,300.91455703125,105.435C295.53558703125,105.435,291.57470703125,101.2506,291.57470703125,95.75533C291.57470703125,90.31049,295.60893703125,86.0504151,300.91455703125,86.0504151C302.79720703125,86.0504151,304.50870703125,86.579774,305.95120703125,87.51245C308.73850703125,89.30219,309.66760703125,91.74732,310.54780703125,94.89827C310.93900703125,96.3099,311.28130703125,97.6459,311.96590703125,98.83070000000001C312.47930703125,99.7885,313.21280703125,100.5952,314.14190703125,101.1245C314.50870703125,101.3514,314.92430703125,101.5279,315.34000703125,101.6287C315.78010703125,101.7547,316.22020703124997,101.8051,316.68470703125,101.8051C319.86320703125,101.8051,322.18590703125,98.9063,322.18590703125,95.73012C322.18590703125,92.55396999999999,319.86320703125,89.6551,316.68470703125,89.6551C314.55760703125,89.6551,312.82160703125,90.94068,311.91700703125,92.75563C311.28130703125,91.52046,310.57230703125,90.28529,309.78990703125,89.05012C311.42800703125,87.13434,313.84850703125,86,316.66030703125,86C322.03920703125,86,326.00010703125,90.18446,326.00010703125,95.70491Z" fill="#FFFFFF" fill-opacity="1"/></g><g></g></g><g style="opacity:0.20000000298023224;"><g><path d="M37.90899925231933,19.1907L37.90899925231933,0.9165399999999999L36.894899252319334,1.298028L18.483999252319336,8.224039999999999L18.483999252319336,26.4982L37.90899925231933,19.1907ZM36.40899925231933,3.08346L36.40899925231933,18.1523L19.983999252319336,24.3313L19.983999252319336,9.26238L36.40899925231933,3.08346Z" fill-rule="evenodd" fill="#FFFFFF" fill-opacity="1"/></g><g><path d="M19.9841,8.22093L1.260141,1.296561L0.25,0.923L0.25,19.1938L19.9841,26.4917L19.9841,8.22093ZM1.75,3.077L1.75,18.1492L18.4841,24.3377L18.4841,9.26549L1.75,3.077Z" fill-rule="evenodd" fill="#FFFFFF" fill-opacity="1"/></g><g><path d="M91.68629913330078,8.224039999999999L73.27537413330079,1.298028L72.26129913330078,0.9165399999999999L72.26129913330078,19.1907L91.68629913330078,26.4982L91.68629913330078,8.224039999999999ZM73.76129913330078,3.08346L73.76129913330078,18.1523L90.18629913330078,24.3313L90.18629913330078,9.26238L73.76129913330078,3.08346Z" fill-rule="evenodd" fill="#FFFFFF" fill-opacity="1"/></g><g><path d="M146.0789993286133,19.1907L146.0789993286133,0.9165399999999999L145.06489932861328,1.298028L126.65399932861328,8.224039999999999L126.65399932861328,26.4982L146.0789993286133,19.1907ZM144.5789993286133,3.08346L144.5789993286133,18.1523L128.15399932861328,24.3313L128.15399932861328,9.26238L144.5789993286133,3.08346Z" fill-rule="evenodd" fill="#FFFFFF" fill-opacity="1"/></g><g><path d="M19.9841,25.015138462524412L1.259655,18.105289462524414L0.25,17.732698462524414L0.25,36.00270846252441L19.9841,43.300608462524416L19.9841,25.015138462524412ZM1.75,19.885118462524414L1.75,34.958108462524415L18.4841,41.14660846252441L18.4841,26.060478462524415L1.75,19.885118462524414Z" fill-rule="evenodd" fill="#FFFFFF" fill-opacity="1"/></g><g><path d="M37.90899925231933,69.44450809326172L37.90899925231933,50.73868809326172L36.88949925231934,51.13119109326172L18.483999252319336,58.21749809326172L18.483999252319336,76.93940809326172L37.90899925231933,69.44450809326172ZM36.40899925231933,52.923528093261716L36.40899925231933,68.41550809326172L19.983999252319336,74.75280809326172L19.983999252319336,59.24731809326172L36.40899925231933,52.923528093261716Z" fill-rule="evenodd" fill="#FFFFFF" fill-opacity="1"/></g><g><path d="M73.76040155029297,35.996408462524414L73.76040155029297,17.719568462524414L72.74280155029297,18.108281462524413L54.64440155029297,25.021438462524415L54.64440155029297,43.31380846252441L73.76040155029297,35.996408462524414ZM72.26040155029297,19.898248462524414L72.26040155029297,34.96440846252442L56.14440155029297,41.133408462524415L56.14440155029297,26.054178462524412L72.26040155029297,19.898248462524414Z" fill-rule="evenodd" fill="#FFFFFF" fill-opacity="1"/></g><g><path d="M91.68629913330078,41.75698791625977L73.27240313330078,34.918625916259764L72.26129913330078,34.54312791625976L72.26129913330078,52.61560791625976L91.68629913330078,59.81400791625977L91.68629913330078,41.75698791625977ZM73.76129913330078,36.70028791625977L73.76129913330078,51.571807916259765L90.18629913330078,57.65840791625976L90.18629913330078,42.800027916259765L73.76129913330078,36.70028791625977Z" fill-rule="evenodd" fill="#FFFFFF" fill-opacity="1"/></g><g><path d="M91.68629913330078,95.52068649414062L73.27240213330079,88.68232349414062L72.26129913330078,88.30682649414062L72.26129913330078,106.37970649414062L91.68629913330078,113.57750649414062L91.68629913330078,95.52068649414062ZM73.76129913330078,90.46398649414063L73.76129913330078,105.33590649414063L90.18629913330078,111.42210649414062L90.18629913330078,96.56372649414062L73.76129913330078,90.46398649414063Z" fill-rule="evenodd" fill="#FFFFFF" fill-opacity="1"/></g><g><path d="M56.144500390625,25.118638462524416L37.423469390625,18.106559462524412L36.410400390625,17.727108462524413L36.410400390625,36.229108462524415L56.144500390625,43.60480846252442L56.144500390625,25.118638462524416ZM37.910400390625,19.890708462524415L37.910400390625,35.18830846252442L54.644500390625,41.44280846252441L54.644500390625,26.158578462524414L37.910400390625,19.890708462524415Z" fill-rule="evenodd" fill="#FFFFFF" fill-opacity="1"/></g><g><path d="M56.144500390625,41.84272791625977L37.420544390625,34.91826991625977L36.410400390625,34.544697916259764L36.410400390625,52.83030791625977L56.144500390625,60.11260791625976L56.144500390625,41.84272791625977ZM37.910400390625,36.69871791625977L37.910400390625,51.78490791625977L54.644500390625,57.96020791625976L54.644500390625,42.887287916259766L37.910400390625,36.69871791625977Z" fill-rule="evenodd" fill="#FFFFFF" fill-opacity="1"/></g><g><path d="M146.0789993286133,52.61560791625976L146.0789993286133,34.54312791625976L145.0678993286133,34.918625916259764L126.65399932861328,41.75698791625977L126.65399932861328,59.81400791625977L146.0789993286133,52.61560791625976ZM144.5789993286133,36.70028791625977L144.5789993286133,51.571807916259765L128.15399932861328,57.65840791625976L128.15399932861328,42.800027916259765L144.5789993286133,36.70028791625977Z" fill-rule="evenodd" fill="#FFFFFF" fill-opacity="1"/></g><g><path d="M164.00100402832032,25.018248462524415L145.58958802832032,18.106752462524415L144.5760040283203,17.726258462524413L144.5760040283203,35.999608462524414L164.00100402832032,43.30710846252441L164.00100402832032,25.018248462524415ZM146.0760040283203,19.891558462524415L146.0760040283203,34.96120846252441L162.50100402832032,41.14010846252441L162.50100402832032,26.057368462524416L146.0760040283203,19.891558462524415Z" fill-rule="evenodd" fill="#FFFFFF" fill-opacity="1"/></g><g><path d="M146.0789993286133,86.05890592041015L146.0789993286133,67.55365592041015L145.0619993286133,67.94115392041016L126.65399932861328,74.95477592041016L126.65399932861328,93.44430592041016L146.0789993286133,86.05890592041015ZM144.5789993286133,69.73035592041016L144.5789993286133,85.02450592041015L128.15399932861328,91.26930592041016L128.15399932861328,75.98844592041016L144.5789993286133,69.73035592041016Z" fill-rule="evenodd" fill="#FFFFFF" fill-opacity="1"/></g><g><path d="M164.00100402832032,41.70415938720703L145.59035602832031,34.76994238720703L144.5760040283203,34.38789938720703L144.5760040283203,52.93520938720703L164.00100402832032,60.43010938720703L164.00100402832032,41.70415938720703ZM146.0760040283203,36.555719387207034L146.0760040283203,51.90620938720703L162.50100402832032,58.24350938720703L162.50100402832032,42.74205938720703L146.0760040283203,36.555719387207034Z" fill-rule="evenodd" fill="#FFFFFF" fill-opacity="1"/></g><g><path d="M109.60879974365234,69.44450809326172L109.60879974365234,50.73868809326172L108.58929974365235,51.13119109326172L90.18379974365234,58.21749809326172L90.18379974365234,76.93940809326172L109.60879974365234,69.44450809326172ZM108.10879974365234,52.923528093261716L108.10879974365234,68.41550809326172L91.68379974365234,74.75280809326172L91.68379974365234,59.24731809326172L108.10879974365234,52.923528093261716Z" fill-rule="evenodd" fill="#FFFFFF" fill-opacity="1"/></g><g><path d="M200.1631008544922,25.015138462524412L181.4386558544922,18.105289462524414L180.4290008544922,17.732698462524414L180.4290008544922,36.00270846252441L200.1631008544922,43.300608462524416L200.1631008544922,25.015138462524412ZM181.9290008544922,19.885118462524414L181.9290008544922,34.958108462524415L198.6631008544922,41.14660846252441L198.6631008544922,26.060478462524415L181.9290008544922,19.885118462524414Z" fill-rule="evenodd" fill="#FFFFFF" fill-opacity="1"/></g><g><path d="M128.15100170898438,25.012118462524413L109.11383870898437,18.103892462524414L108.10800170898438,17.738888462524415L108.10800170898438,36.00570846252441L128.15100170898438,43.294408462524416L128.15100170898438,25.012118462524413ZM109.60800170898438,19.878918462524414L109.60800170898438,34.955108462524414L126.65100170898438,41.15280846252442L126.65100170898438,26.063498462524414L109.60800170898438,19.878918462524414Z" fill-rule="evenodd" fill="#FFFFFF" fill-opacity="1"/></g><g><path d="M200.1630008544922,58.21434809326172L181.4444858544922,51.12966809326172L180.4290008544922,50.745318093261716L180.4290008544922,69.44770809326172L200.1630008544922,76.93270809326172L200.1630008544922,58.21434809326172ZM181.9290008544922,52.91689809326172L181.9290008544922,68.41230809326171L198.6630008544922,74.75950809326172L198.6630008544922,59.250468093261716L181.9290008544922,52.91689809326172Z" fill-rule="evenodd" fill="#FFFFFF" fill-opacity="1"/></g><g><path d="M181.92800598144532,18.9939L181.92800598144532,0.9214199999999999L180.91690598144532,1.296918L162.5030059814453,8.13528L162.5030059814453,26.1923L181.92800598144532,18.9939ZM180.42800598144532,3.07858L180.42800598144532,17.9501L164.0030059814453,24.0367L164.0030059814453,9.17832L180.42800598144532,3.07858Z" fill-rule="evenodd" fill="#FFFFFF" fill-opacity="1"/></g></g><g style="opacity:0.20000000298023224;"><g><path d="M253.83599548339845,19.1907L253.83599548339845,0.9165399999999999L252.82189548339844,1.298028L234.41099548339844,8.224039999999999L234.41099548339844,26.4982L253.83599548339845,19.1907ZM252.33599548339845,3.08346L252.33599548339845,18.1523L235.91099548339844,24.3313L235.91099548339844,9.26238L252.33599548339845,3.08346Z" fill-rule="evenodd" fill="#FFFFFF" fill-opacity="1"/></g><g><path d="M235.90910305175782,8.22093L217.18514405175782,1.296561L216.1750030517578,0.923L216.1750030517578,19.1938L235.90910305175782,26.4917L235.90910305175782,8.22093ZM217.6750030517578,3.077L217.6750030517578,18.1492L234.40910305175782,24.3377L234.40910305175782,9.26549L217.6750030517578,3.077Z" fill-rule="evenodd" fill="#FFFFFF" fill-opacity="1"/></g><g><path d="M307.60899047851564,8.224039999999999L289.1980654785156,1.298028L288.1839904785156,0.9165399999999999L288.1839904785156,19.1907L307.60899047851564,26.4982L307.60899047851564,8.224039999999999ZM289.6839904785156,3.08346L289.6839904785156,18.1523L306.10899047851564,24.3313L306.10899047851564,9.26238L289.6839904785156,3.08346Z" fill-rule="evenodd" fill="#FFFFFF" fill-opacity="1"/></g><g><path d="M362.00401000976564,19.1907L362.00401000976564,0.9165399999999999L360.98991000976565,1.298028L342.5790100097656,8.224039999999999L342.5790100097656,26.4982L362.00401000976564,19.1907ZM360.50401000976564,3.08346L360.50401000976564,18.1523L344.0790100097656,24.3313L344.0790100097656,9.26238L360.50401000976564,3.08346Z" fill-rule="evenodd" fill="#FFFFFF" fill-opacity="1"/></g><g><path d="M217.675,52.61559946899414L217.675,34.54322946899414L216.6639,34.918715468994144L198.25,41.75697946899414L198.25,59.814099468994144L217.675,52.61559946899414ZM216.175,36.70036946899414L216.175,51.57179946899414L199.75,57.65849946899414L199.75,42.80001946899414L216.175,36.70036946899414Z" fill-rule="evenodd" fill="#FFFFFF" fill-opacity="1"/></g><g><path d="M235.90910305175782,25.01513083312988L217.18465805175782,18.105281833129883L216.1750030517578,17.732690833129883L216.1750030517578,36.00270083312988L235.90910305175782,43.300600833129884L235.90910305175782,25.01513083312988ZM217.6750030517578,19.885110833129882L217.6750030517578,34.95810083312988L234.40910305175782,41.14660083312988L234.40910305175782,26.060470833129884L217.6750030517578,19.885110833129882Z" fill-rule="evenodd" fill="#FFFFFF" fill-opacity="1"/></g><g><path d="M253.83599548339845,69.44450046386719L253.83599548339845,50.73867046386719L252.81649548339843,51.13118546386719L234.41099548339844,58.21759046386719L234.41099548339844,76.93940046386719L253.83599548339845,69.44450046386719ZM252.33599548339845,52.92353046386719L252.33599548339845,68.41550046386719L235.91099548339844,74.75280046386719L235.91099548339844,59.24741046386719L252.33599548339845,52.92353046386719Z" fill-rule="evenodd" fill="#FFFFFF" fill-opacity="1"/></g><g><path d="M289.6850002441406,35.99640083312988L289.6850002441406,17.719560833129883L288.66740024414065,18.108273833129882L270.5690002441406,25.021430833129884L270.5690002441406,43.31380083312988L289.6850002441406,35.99640083312988ZM288.1850002441406,19.898240833129883L288.1850002441406,34.964400833129886L272.0690002441406,41.13340083312988L272.0690002441406,26.05417083312988L288.1850002441406,19.898240833129883Z" fill-rule="evenodd" fill="#FFFFFF" fill-opacity="1"/></g><g><path d="M307.60899047851564,41.75697946899414L289.1950904785156,34.918715468994144L288.1839904785156,34.54322946899414L288.1839904785156,52.61559946899414L307.60899047851564,59.814099468994144L307.60899047851564,41.75697946899414ZM289.6839904785156,36.70036946899414L289.6839904785156,51.57179946899414L306.10899047851564,57.65849946899414L306.10899047851564,42.80001946899414L289.6839904785156,36.70036946899414Z" fill-rule="evenodd" fill="#FFFFFF" fill-opacity="1"/></g><g><path d="M307.60899047851564,76.32107864501953L289.1950944785156,69.48271664501954L288.1839904785156,69.10721864501953L288.1839904785156,87.17969864501953L307.60899047851564,94.37809864501953L307.60899047851564,76.32107864501953ZM289.6839904785156,71.26437864501953L289.6839904785156,86.13589864501954L306.10899047851564,92.22249864501953L306.10899047851564,77.36411864501953L289.6839904785156,71.26437864501953Z" fill-rule="evenodd" fill="#FFFFFF" fill-opacity="1"/></g><g><path d="M272.06709255371095,25.118630833129885L253.34606155371094,18.10655183312988L252.33299255371094,17.72710083312988L252.33299255371094,36.229100833129884L272.06709255371095,43.604800833129886L272.06709255371095,25.118630833129885ZM253.83299255371094,19.890700833129884L253.83299255371094,35.18830083312989L270.56709255371095,41.44280083312988L270.56709255371095,26.158570833129883L253.83299255371094,19.890700833129884Z" fill-rule="evenodd" fill="#FFFFFF" fill-opacity="1"/></g><g><path d="M272.0669925537109,41.84271946899414L253.34313455371094,34.91836046899414L252.33299255371094,34.54479946899414L252.33299255371094,52.83029946899414L272.0669925537109,60.11269946899414L272.0669925537109,41.84271946899414ZM253.83299255371094,36.69879946899414L253.83299255371094,51.78489946899414L270.5669925537109,57.96029946899414L270.5669925537109,42.88727946899414L253.83299255371094,36.69879946899414Z" fill-rule="evenodd" fill="#FFFFFF" fill-opacity="1"/></g><g><path d="M362.00401000976564,52.61559946899414L362.00401000976564,34.54322946899414L360.99291000976564,34.918715468994144L342.5790100097656,41.75697946899414L342.5790100097656,59.814099468994144L362.00401000976564,52.61559946899414ZM360.50401000976564,36.70036946899414L360.50401000976564,51.57179946899414L344.0790100097656,57.65849946899414L344.0790100097656,42.80001946899414L360.50401000976564,36.70036946899414Z" fill-rule="evenodd" fill="#FFFFFF" fill-opacity="1"/></g><g><path d="M379.92799072265626,25.018240833129884L361.51657472265623,18.106744833129884L360.50299072265625,17.726250833129882L360.50299072265625,35.99960083312988L379.92799072265626,43.30710083312988L379.92799072265626,25.018240833129884ZM362.00299072265625,19.891550833129884L362.00299072265625,34.96120083312988L378.42799072265626,41.14010083312988L378.42799072265626,26.057360833129884L362.00299072265625,19.891550833129884Z" fill-rule="evenodd" fill="#FFFFFF" fill-opacity="1"/></g><g><path d="M362.00401000976564,86.05889829101562L362.00401000976564,67.55364829101562L360.98701000976564,67.94114629101563L342.5790100097656,74.95476829101563L342.5790100097656,93.44429829101563L362.00401000976564,86.05889829101562ZM360.50401000976564,69.73034829101563L360.50401000976564,85.02449829101562L344.0790100097656,91.26929829101563L344.0790100097656,75.98843829101563L360.50401000976564,69.73034829101563Z" fill-rule="evenodd" fill="#FFFFFF" fill-opacity="1"/></g><g><path d="M379.92799072265626,41.704140939941404L361.51733972265623,34.770031939941404L360.50299072265625,34.3879909399414L360.50299072265625,52.93520093994141L379.92799072265626,60.43010093994141L379.92799072265626,41.704140939941404ZM362.00299072265625,36.55581093994141L362.00299072265625,51.90620093994141L378.42799072265626,58.243500939941406L378.42799072265626,42.74205093994141L362.00299072265625,36.55581093994141Z" fill-rule="evenodd" fill="#FFFFFF" fill-opacity="1"/></g><g><path d="M325.53599243164064,69.44450046386719L325.53599243164064,50.73867046386719L324.51649243164064,51.13118546386719L306.1109924316406,58.21759046386719L306.1109924316406,76.93940046386719L325.53599243164064,69.44450046386719ZM324.03599243164064,52.92353046386719L324.03599243164064,68.41550046386719L307.6109924316406,74.75280046386719L307.6109924316406,59.24741046386719L324.03599243164064,52.92353046386719Z" fill-rule="evenodd" fill="#FFFFFF" fill-opacity="1"/></g><g><path d="M416.08410610351564,25.01513083312988L397.35966110351563,18.105281833129883L396.3500061035156,17.732690833129883L396.3500061035156,36.00270083312988L416.08410610351564,43.300600833129884L416.08410610351564,25.01513083312988ZM397.8500061035156,19.885110833129882L397.8500061035156,34.95810083312988L414.58410610351564,41.14660083312988L414.58410610351564,26.060470833129884L397.8500061035156,19.885110833129882Z" fill-rule="evenodd" fill="#FFFFFF" fill-opacity="1"/></g><g><path d="M397.85499267578126,69.45960046386719L397.85499267578126,50.73783046386719L396.8349926757812,51.13137746386719L378.42999267578125,58.232690463867186L378.42999267578125,76.93850046386719L397.85499267578126,69.45960046386719ZM396.35499267578126,52.924370463867184L396.35499267578126,68.4298004638672L379.92999267578125,74.75370046386719L379.92999267578125,59.26171046386719L396.35499267578126,52.924370463867184Z" fill-rule="evenodd" fill="#FFFFFF" fill-opacity="1"/></g><g><path d="M397.85300903320314,109.09689741210937L397.85300903320314,90.37532741210937L396.8330090332031,90.76887441210937L378.4280090332031,97.87018741210937L378.4280090332031,116.57649741210938L397.85300903320314,109.09689741210937ZM396.35300903320314,92.56186741210938L396.35300903320314,108.06709741210938L379.9280090332031,114.39149741210937L379.9280090332031,98.89920741210938L396.35300903320314,92.56186741210938Z" fill-rule="evenodd" fill="#FFFFFF" fill-opacity="1"/></g><g><path d="M344.07598950195313,25.01211083312988L325.0388265019531,18.103884833129882L324.0329895019531,17.738880833129883L324.0329895019531,36.00570083312988L344.07598950195313,43.294400833129885L344.07598950195313,25.01211083312988ZM325.5329895019531,19.878910833129883L325.5329895019531,34.95510083312988L342.57598950195313,41.15280083312989L342.57598950195313,26.063490833129883L325.5329895019531,19.878910833129883Z" fill-rule="evenodd" fill="#FFFFFF" fill-opacity="1"/></g><g><path d="M416.0840061035156,58.214440463867184L397.36549410351563,51.12966146386719L396.3500061035156,50.745310463867185L396.3500061035156,69.44770046386719L416.0840061035156,76.93270046386719L416.0840061035156,58.214440463867184ZM397.8500061035156,52.91689046386719L397.8500061035156,68.41230046386718L414.5840061035156,74.75950046386718L414.5840061035156,59.250550463867185L397.8500061035156,52.91689046386719Z" fill-rule="evenodd" fill="#FFFFFF" fill-opacity="1"/></g><g><path d="M455.6889865722656,113.00394219726563L436.9704605722656,105.91955819726563L435.9549865722656,105.53523219726563L435.9549865722656,124.23770219726563L455.6889865722656,131.72260219726562L455.6889865722656,113.00394219726563ZM437.4549865722656,107.70677219726562L437.4549865722656,123.20230219726562L454.1889865722656,129.54940219726564L454.1889865722656,114.04007219726563L437.4549865722656,107.70677219726562Z" fill-rule="evenodd" fill="#FFFFFF" fill-opacity="1"/></g><g><path d="M397.85499267578126,18.9939L397.85499267578126,0.9214199999999999L396.84389267578126,1.296918L378.42999267578125,8.13528L378.42999267578125,26.1923L397.85499267578126,18.9939ZM396.35499267578126,3.07858L396.35499267578126,17.9501L379.92999267578125,24.0367L379.92999267578125,9.17832L396.35499267578126,3.07858Z" fill-rule="evenodd" fill="#FFFFFF" fill-opacity="1"/></g></g><g style="opacity:0.20000000298023224;"><g><path d="M470.9090087890625,19.1907L470.9090087890625,0.9165399999999999L469.8949087890625,1.298028L451.4840087890625,8.224039999999999L451.4840087890625,26.4982L470.9090087890625,19.1907ZM469.4090087890625,3.08346L469.4090087890625,18.1523L452.9840087890625,24.3313L452.9840087890625,9.26238L469.4090087890625,3.08346Z" fill-rule="evenodd" fill="#FFFFFF" fill-opacity="1"/></g><g><path d="M452.9841,8.22093L434.260141,1.296561L433.25,0.923L433.25,19.1938L452.9841,26.4917L452.9841,8.22093ZM434.75,3.077L434.75,18.1492L451.4841,24.3377L451.4841,9.26549L434.75,3.077Z" fill-rule="evenodd" fill="#FFFFFF" fill-opacity="1"/></g><g><path d="M524.6860168457031,8.224039999999999L506.2750918457031,1.298028L505.2610168457031,0.9165399999999999L505.2610168457031,19.1907L524.6860168457031,26.4982L524.6860168457031,8.224039999999999ZM506.7610168457031,3.08346L506.7610168457031,18.1523L523.1860168457031,24.3313L523.1860168457031,9.26238L506.7610168457031,3.08346Z" fill-rule="evenodd" fill="#FFFFFF" fill-opacity="1"/></g><g><path d="M452.9841,25.01513083312988L434.259655,18.105281833129883L433.25,17.732690833129883L433.25,36.00270083312988L452.9841,43.300600833129884L452.9841,25.01513083312988ZM434.75,19.885110833129882L434.75,34.95810083312988L451.4841,41.14660083312988L451.4841,26.060470833129884L434.75,19.885110833129882Z" fill-rule="evenodd" fill="#FFFFFF" fill-opacity="1"/></g><g><path d="M470.9090087890625,69.44450046386719L470.9090087890625,50.73867046386719L469.8895087890625,51.13118546386719L451.4840087890625,58.21759046386719L451.4840087890625,76.93940046386719L470.9090087890625,69.44450046386719ZM469.4090087890625,52.92353046386719L469.4090087890625,68.41550046386719L452.9840087890625,74.75280046386719L452.9840087890625,59.24741046386719L469.4090087890625,52.92353046386719Z" fill-rule="evenodd" fill="#FFFFFF" fill-opacity="1"/></g><g><path d="M506.76001245117186,35.99640083312988L506.76001245117186,17.719560833129883L505.7424124511719,18.108273833129882L487.6440124511719,25.021430833129884L487.6440124511719,43.31380083312988L506.76001245117186,35.99640083312988ZM505.26001245117186,19.898240833129883L505.26001245117186,34.964400833129886L489.1440124511719,41.13340083312988L489.1440124511719,26.05417083312988L505.26001245117186,19.898240833129883Z" fill-rule="evenodd" fill="#FFFFFF" fill-opacity="1"/></g><g><path d="M524.6860168457031,41.75697946899414L506.2721168457031,34.918715468994144L505.2610168457031,34.54322946899414L505.2610168457031,52.61559946899414L524.6860168457031,59.814099468994144L524.6860168457031,41.75697946899414ZM506.7610168457031,36.70036946899414L506.7610168457031,51.57179946899414L523.1860168457031,57.65849946899414L523.1860168457031,42.80001946899414L506.7610168457031,36.70036946899414Z" fill-rule="evenodd" fill="#FFFFFF" fill-opacity="1"/></g><g><path d="M524.6860168457031,95.52067886474609L506.2721208457031,88.6823168647461L505.2610168457031,88.30681886474609L505.2610168457031,106.37889886474609L524.6860168457031,113.57779886474609L524.6860168457031,95.52067886474609ZM506.7610168457031,90.4639788647461L506.7610168457031,105.3350988647461L523.1860168457031,111.4221988647461L523.1860168457031,96.5637188647461L506.7610168457031,90.4639788647461Z" fill-rule="evenodd" fill="#FFFFFF" fill-opacity="1"/></g><g><path d="M489.1441036621094,25.118630833129885L470.42307266210935,18.10655183312988L469.4100036621094,17.72710083312988L469.4100036621094,36.229100833129884L489.1441036621094,43.604800833129886L489.1441036621094,25.118630833129885ZM470.9100036621094,19.890700833129884L470.9100036621094,35.18830083312989L487.6441036621094,41.44280083312988L487.6441036621094,26.158570833129883L470.9100036621094,19.890700833129884Z" fill-rule="evenodd" fill="#FFFFFF" fill-opacity="1"/></g><g><path d="M489.14400366210936,41.84271946899414L470.42014566210935,34.91836046899414L469.4100036621094,34.54479946899414L469.4100036621094,52.83029946899414L489.14400366210936,60.11269946899414L489.14400366210936,41.84271946899414ZM470.9100036621094,36.69879946899414L470.9100036621094,51.78489946899414L487.64400366210936,57.96029946899414L487.64400366210936,42.88727946899414L470.9100036621094,36.69879946899414Z" fill-rule="evenodd" fill="#FFFFFF" fill-opacity="1"/></g><g><path d="M542.6090139160157,69.44450046386719L542.6090139160157,50.73869046386719L541.5895139160157,51.13118046386719L523.1830139160156,58.217580463867186L523.1830139160156,76.93930046386718L542.6090139160157,69.44450046386719ZM541.1090139160157,52.92351046386719L541.1090139160157,68.41550046386719L524.6830139160156,74.75290046386719L524.6830139160156,59.24741046386719L541.1090139160157,52.92351046386719Z" fill-rule="evenodd" fill="#FFFFFF" fill-opacity="1"/></g><g><path d="M561.1510017089844,25.01211083312988L542.1138387089844,18.103884833129882L541.1080017089844,17.738880833129883L541.1080017089844,36.00570083312988L561.1510017089844,43.294400833129885L561.1510017089844,25.01211083312988ZM542.6080017089844,19.878910833129883L542.6080017089844,34.95510083312988L559.6510017089844,41.15280083312989L559.6510017089844,26.063490833129883L542.6080017089844,19.878910833129883Z" fill-rule="evenodd" fill="#FFFFFF" fill-opacity="1"/></g><g><path d="M561.1510017089844,76.98081314941406L542.1138387089844,70.07258714941406L541.1080017089844,69.70758314941406L541.1080017089844,87.97440314941406L561.1510017089844,95.26310314941406L561.1510017089844,76.98081314941406ZM542.6080017089844,71.84761314941406L542.6080017089844,86.92380314941406L559.6510017089844,93.12150314941407L559.6510017089844,78.03219314941407L542.6080017089844,71.84761314941406Z" fill-rule="evenodd" fill="#FFFFFF" fill-opacity="1"/></g></g></g></svg>