<svg xmlns="http://www.w3.org/2000/svg" xmlns:xlink="http://www.w3.org/1999/xlink" fill="none" version="1.1" width="1024" height="1024" viewBox="0 0 1024 1024"><defs><clipPath id="master_svg0_28_15984"><rect x="0" y="0" width="1024" height="1024" rx="0"/></clipPath><clipPath id="master_svg1_28_16442"><rect x="0" y="413" width="1024" height="197" rx="0"/></clipPath><linearGradient x1="1" y1="0.5" x2="0" y2="0.5" id="master_svg2_27_16051"><stop offset="0%" stop-color="#00CBFF" stop-opacity="1"/><stop offset="100%" stop-color="#6850FF" stop-opacity="1"/></linearGradient></defs><g clip-path="url(#master_svg0_28_15984)"><g transform="matrix(0.9989575147628784,0,0,0.9979921579360962,0,0)"><g></g></g><g clip-path="url(#master_svg1_28_16442)"><g><path d="M354.5189999999991,452.4450546875C354.5189999999991,452.4450546875,354.5189999999991,492.6648546875,354.5189999999991,492.6648546875C354.5189999999991,492.6648546875,436.8899999999991,492.6648546875,436.8899999999991,492.6648546875C436.8899999999991,492.6648546875,436.8899999999991,528.5295546875,436.8899999999991,528.5295546875C436.8899999999991,528.5295546875,354.5189999999991,528.5295546875,354.5189999999991,528.5295546875C354.5189999999991,528.5295546875,354.5189999999991,571.3115546875,354.5189999999991,571.3115546875C354.5189999999991,571.3115546875,455.9179999999991,571.3115546875,455.9179999999991,571.3115546875C455.9179999999991,571.3115546875,455.9179999999991,607.1755546875,455.9179999999991,607.1755546875C455.9179999999991,607.1755546875,316.7139999999991,607.1755546875,316.7139999999991,607.1755546875C316.7139999999991,607.1755546875,316.7139999999991,605.3825546875,316.7139999999991,605.3825546875C316.7139999999991,542.8755546875,316.7139999999991,480.6245546875,316.7139999999991,418.1173846875C316.7139999999991,418.1173846875,316.7139999999991,416.3241446875,316.7139999999991,416.3241446875C316.7139999999991,416.3241446875,455.9179999999991,416.3241446875,455.9179999999991,416.3241446875C455.9179999999991,416.3241446875,455.9179999999991,452.1889546875,455.9179999999991,452.1889546875C455.9179999999991,452.1889546875,354.5189999999991,452.1889546875,354.5189999999991,452.1889546875C354.5189999999991,452.1889546875,354.5189999999991,452.4450546875,354.5189999999991,452.4450546875ZM37.55499999999909,452.4450546875C37.55499999999909,452.4450546875,37.55499999999909,492.6648546875,37.55499999999909,492.6648546875C37.55499999999909,492.6648546875,119.92599999999909,492.6648546875,119.92599999999909,492.6648546875C119.92599999999909,492.6648546875,119.92599999999909,528.5295546875,119.92599999999909,528.5295546875C119.92599999999909,528.5295546875,37.55499999999909,528.5295546875,37.55499999999909,528.5295546875C37.55499999999909,528.5295546875,37.55499999999909,571.3115546875,37.55499999999909,571.3115546875C37.55499999999909,571.3115546875,138.9539999999991,571.3115546875,138.9539999999991,571.3115546875C138.9539999999991,571.3115546875,138.9539999999991,607.1755546875,138.9539999999991,607.1755546875C138.9539999999991,607.1755546875,-9.094947017729282e-13,607.1755546875,-9.094947017729282e-13,607.1755546875C-9.094947017729282e-13,607.1755546875,-9.094947017729282e-13,605.3825546875,-9.094947017729282e-13,605.3825546875C-9.094947017729282e-13,543.1315546875,-9.094947017729282e-13,480.6245546875,-9.094947017729282e-13,418.3735646875C-9.094947017729282e-13,418.3735646875,-9.094947017729282e-13,416.3241446875,-9.094947017729282e-13,416.3241446875C-9.094947017729282e-13,416.3241446875,139.2039999999991,416.3241446875,139.2039999999991,416.3241446875C139.2039999999991,416.3241446875,139.2039999999991,452.1889546875,139.2039999999991,452.1889546875C139.2039999999991,452.1889546875,37.55499999999909,452.1889546875,37.55499999999909,452.1889546875C37.55499999999909,452.1889546875,37.55499999999909,452.4450546875,37.55499999999909,452.4450546875ZM202.29599999999908,571.3115546875C202.29599999999908,571.3115546875,297.93599999999907,571.3115546875,297.93599999999907,571.3115546875C297.93599999999907,571.3115546875,297.93599999999907,607.1755546875,297.93599999999907,607.1755546875C297.93599999999907,607.1755546875,164.7409999999991,607.1755546875,164.7409999999991,607.1755546875C164.7409999999991,607.1755546875,164.7409999999991,605.3825546875,164.7409999999991,605.3825546875C164.7409999999991,542.8755546875,164.7409999999991,480.6245546875,164.7409999999991,418.1173846875C164.7409999999991,418.1173846875,164.7409999999991,416.3241446875,164.7409999999991,416.3241446875C164.7409999999991,416.3241446875,202.29599999999908,416.3241446875,202.29599999999908,416.3241446875C202.29599999999908,416.3241446875,202.29599999999908,571.3115546875,202.29599999999908,571.3115546875ZM609.6429999999991,533.3965546875C609.6429999999991,533.3965546875,554.0619999999991,533.3965546875,554.0619999999991,533.3965546875C554.0619999999991,533.3965546875,554.0619999999991,500.0939546875,554.0619999999991,500.0939546875C554.0619999999991,500.0939546875,647.948999999999,500.0939546875,647.948999999999,500.0939546875C647.948999999999,500.0939546875,647.948999999999,607.4325546875,647.948999999999,607.4325546875C647.948999999999,607.4325546875,615.9019999999991,607.4325546875,615.9019999999991,607.4325546875C615.9019999999991,607.4325546875,615.9019999999991,583.0955546875,615.9019999999991,583.0955546875C603.1329999999991,601.5395546875,583.3539999999991,608.4565546875,560.8209999999991,609.7375546875C537.5369999999991,611.0185546875,514.2529999999991,602.0525546875,496.7279999999991,586.4255546875C476.44799999999907,567.9805546875,466.4329999999991,542.6195546875,466.4329999999991,515.2085546875C466.4329999999991,458.3371546875,502.9869999999991,414.0185546875,559.8199999999991,414.0185546875C582.602999999999,414.0185546875,603.6339999999991,421.1915046875,620.9099999999991,436.3059546875C627.4189999999991,441.9418546875,635.4309999999991,450.9080546875,639.4369999999991,458.8495546875C639.4369999999991,458.8495546875,640.1879999999991,460.3865546875,640.1879999999991,460.3865546875C640.1879999999991,460.3865546875,608.140999999999,481.3930546875,608.140999999999,481.3930546875C608.140999999999,481.3930546875,607.1389999999991,479.5998546875,607.1389999999991,479.5998546875C591.616999999999,447.5777546875,547.8019999999991,441.1732546875,523.265999999999,466.0224546875C512.2499999999991,477.0380546875,504.9899999999991,494.7142546875,504.9899999999991,510.5972546875C504.9899999999991,523.9185546875,508.99599999999907,539.0325546875,516.0059999999991,550.3045546875001C526.0199999999991,566.1875546875,541.2929999999991,573.6165546875,559.8199999999991,573.6165546875C585.857999999999,573.1045546875,602.8829999999991,556.9655546875,609.6429999999991,533.3965546875Z" fill-rule="evenodd" fill="#0036FF" fill-opacity="1"/></g><g><path d="M1023.9984218750001,511.6281C1023.9984218750001,566.962,982.688421875,610,928.358421875,610C908.830421875,610,891.054421875,604.364,876.282421875,594.886C850.995421875,578.49,840.2294218750001,556.715,832.217421875,528.28C827.2104218750001,511.1157,823.955421875,494.7204,815.443421875,480.3745C810.185421875,470.6398,802.674421875,462.4421,793.160421875,457.0624C789.405421875,454.7568,785.1484218749999,452.9636,780.892421875,451.9389C776.386421875,450.658,771.879421875,450.1456,767.122521875,450.1456C734.574821875,450.1456,710.789921875,479.606,710.789921875,511.8843C710.789921875,544.163,734.324421875,573.623,767.122521875,573.623C788.904421875,573.623,806.680421875,560.558,815.944421875,542.369C822.453421875,554.922,829.714421875,567.475,837.726421875,580.027C820.450421875,598.984,795.914421875,610.512,767.122521875,610.512C712.041821875,610.512,671.482421875,567.987,671.482421875,512.1404C671.482421875,456.8062,712.792921875,413.512354,767.122521875,413.512354C786.400421875,413.512354,803.926421875,418.89207,818.698421875,428.3706C847.2394218750001,446.5592,856.753421875,471.4083,865.767421875,503.4304C869.772421875,517.776,873.278421875,531.354,880.288421875,543.394C885.546421875,553.129,893.057421875,561.326,902.5714218749999,566.706C906.326421875,569.012,910.582421875,570.8050000000001,914.838421875,571.83C919.345421875,573.111,923.852421875,573.623,928.609421875,573.623C961.156421875,573.623,984.9414218750001,544.163,984.9414218750001,511.8843C984.9414218750001,479.606,961.156421875,450.1456,928.609421875,450.1456C906.827421875,450.1456,889.051421875,463.2107,879.7874218750001,481.6554C873.278421875,469.1027,866.017421875,456.5501,858.005421875,443.99739999999997C874.780421875,424.528,899.5664218750001,413,928.358421875,413C983.439421875,413,1023.9984218750001,455.5254,1023.9984218750001,511.6281Z" fill="url(#master_svg2_27_16051)" fill-opacity="1"/></g><g></g></g></g></svg>