<svg xmlns="http://www.w3.org/2000/svg" xmlns:xlink="http://www.w3.org/1999/xlink" fill="none" version="1.1" width="64" height="64" viewBox="0 0 64 64"><defs><clipPath id="master_svg0_28_16227"><rect x="0" y="0" width="64" height="64" rx="0"/></clipPath><linearGradient x1="1" y1="0.5" x2="0" y2="0.5" id="master_svg1_27_16051"><stop offset="0%" stop-color="#00CBFF" stop-opacity="1"/><stop offset="100%" stop-color="#6850FF" stop-opacity="1"/></linearGradient></defs><g clip-path="url(#master_svg0_28_16227)"><g><rect x="0" y="0" width="64" height="64" rx="14" fill="#E9E9E9" fill-opacity="1"/></g><g><path d="M56,32.4382C56,39.9775,50.375,45.8414,42.9773,45.8414C40.3182,45.8414,37.8977,45.073499999999996,35.886399999999995,43.7821C32.443200000000004,41.5482,30.9773,38.5813,29.8864,34.7069C29.2045,32.3684,28.7614,30.1345,27.6023,28.17984C26.8864,26.85347,25.8636,25.736539999999998,24.5682,25.00355C24.0568,24.68941,23.4773,24.44508,22.8977,24.30546C22.284100000000002,24.13094,21.6704,24.06113,21.0227,24.06113C16.59091,24.06113,13.35227,28.07513,13.35227,32.4731C13.35227,36.870999999999995,16.55681,40.885000000000005,21.0227,40.885000000000005C23.988599999999998,40.885000000000005,26.4091,39.1049,27.6705,36.6267C28.5568,38.337,29.5455,40.0473,30.6364,41.7576C28.2841,44.3405,24.9432,45.9112,21.0227,45.9112C13.52272,45.9112,8,40.1171,8,32.507999999999996C8,24.96864,13.625,19.0698087,21.0227,19.0698087C23.6477,19.0698087,26.0341,19.8028,28.0455,21.09426C31.9318,23.57247,33.2273,26.958190000000002,34.454499999999996,31.321199999999997C35,33.2759,35.4773,35.1258,36.431799999999996,36.7663C37.1477,38.0927,38.170500000000004,39.209599999999995,39.465900000000005,39.9426C39.9773,40.256699999999995,40.5568,40.5011,41.1364,40.640699999999995C41.75,40.815200000000004,42.3636,40.885000000000005,43.0114,40.885000000000005C47.4432,40.885000000000005,50.6818,36.870999999999995,50.6818,32.4731C50.6818,28.07513,47.4432,24.06113,43.0114,24.06113C40.0455,24.06113,37.625,25.84125,36.363600000000005,28.35436C35.4773,26.64405,34.488600000000005,24.93374,33.3977,23.22342C35.681799999999996,20.5707,39.056799999999996,19,42.9773,19C50.4773,19,56,24.79412,56,32.4382Z" fill="url(#master_svg1_27_16051)" fill-opacity="1"/></g></g></svg>