<svg xmlns="http://www.w3.org/2000/svg" xmlns:xlink="http://www.w3.org/1999/xlink" fill="none" version="1.1" width="814.9869995117188" height="1023.99267578125" viewBox="0 0 814.9869995117188 1023.99267578125"><defs><clipPath id="master_svg0_28_16147"><rect x="0" y="0" width="814.9869995117188" height="1023.99267578125" rx="0"/></clipPath><linearGradient x1="1" y1="0.5" x2="0" y2="0.5" id="master_svg1_27_16051"><stop offset="0%" stop-color="#00CBFF" stop-opacity="1"/><stop offset="100%" stop-color="#6850FF" stop-opacity="1"/></linearGradient></defs><g clip-path="url(#master_svg0_28_16147)"><g><path d="M745,512.254C745,618.433,665.781,701.017,561.597,701.017C524.148,701.017,490.06,690.202,461.733,672.014C413.241,640.554,392.597,598.77,377.233,544.206C367.631,511.27099999999996,361.389,479.81100000000004,345.065,452.283C334.983,433.603,320.58000000000004,417.8729,302.33500000000004,407.5499C295.13300000000004,403.1258,286.972,399.6848,278.81,397.7185C270.168,395.2607,261.525,394.2776,252.403,394.2776C189.989,394.2776,144.37779999999998,450.808,144.37779999999998,512.746C144.37779999999998,574.684,189.50799999999998,631.2139999999999,252.403,631.2139999999999C294.173,631.2139999999999,328.261,606.144,346.026,571.2429999999999C358.509,595.329,372.432,619.4159999999999,387.796,643.5029999999999C354.668,679.879,307.616,702,252.403,702C146.7783,702,69,620.4,69,513.237C69,407.0584,148.2187,323.983139,252.403,323.983139C289.372,323.983139,322.98,334.3061,351.307,352.4942C406.04,387.3956,424.284,435.078,441.568,496.524C449.25,524.052,455.972,550.105,469.415,573.2090000000001C479.497,591.8879999999999,493.901,607.619,512.145,617.942C519.347,622.366,527.509,625.807,535.6700000000001,627.773C544.313,630.231,552.9549999999999,631.2139999999999,562.077,631.2139999999999C624.492,631.2139999999999,670.102,574.684,670.102,512.746C670.102,450.808,624.492,394.2776,562.077,394.2776C520.307,394.2776,486.219,419.3476,468.455,454.741C455.972,430.654,442.048,406.5668,426.685,382.4799C458.852,345.1206,506.383,323,561.597,323C667.222,323,745,404.6005,745,512.254Z" fill="url(#master_svg1_27_16051)" fill-opacity="1"/></g></g></svg>