<svg xmlns="http://www.w3.org/2000/svg" xmlns:xlink="http://www.w3.org/1999/xlink" fill="none" version="1.1" width="1024" height="1024" viewBox="0 0 1024 1024"><defs><clipPath id="master_svg0_28_16024"><rect x="0" y="0" width="1024" height="1024" rx="0"/></clipPath><linearGradient x1="1" y1="0.5" x2="0" y2="0.5" id="master_svg1_27_16051"><stop offset="0%" stop-color="#00CBFF" stop-opacity="1"/><stop offset="100%" stop-color="#6850FF" stop-opacity="1"/></linearGradient></defs><g clip-path="url(#master_svg0_28_16024)"><g transform="matrix(0.9989575147628784,0,0,0.9979921579360962,0.01360199180339805,0.03471631492789129)"><g><ellipse cx="512.4659633636475" cy="517.191728591919" rx="499.4183044433594" ry="499.9013671875" fill="#FAFAFA" fill-opacity="1"/><ellipse cx="512.4659633636475" cy="517.191728591919" rx="499.4183044433594" ry="499.9013671875" fill-opacity="0" stroke-opacity="0.7175139784812927" stroke="#D7D4C3" fill="none" stroke-width="1.3257999420166016"/></g></g><g><path d="M850,512.254C850,618.433,770.781,701.017,666.597,701.017C629.148,701.017,595.06,690.202,566.733,672.014C518.241,640.554,497.597,598.77,482.233,544.206C472.631,511.27099999999996,466.389,479.81100000000004,450.065,452.283C439.983,433.603,425.58000000000004,417.8729,407.33500000000004,407.5499C400.13300000000004,403.1258,391.972,399.6848,383.81,397.7185C375.168,395.2607,366.525,394.2776,357.403,394.2776C294.98900000000003,394.2776,249.37779999999998,450.808,249.37779999999998,512.746C249.37779999999998,574.684,294.508,631.2139999999999,357.403,631.2139999999999C399.173,631.2139999999999,433.261,606.144,451.026,571.2429999999999C463.509,595.329,477.432,619.4159999999999,492.796,643.5029999999999C459.668,679.879,412.616,702,357.403,702C251.7783,702,174,620.4,174,513.237C174,407.0584,253.2187,323.983139,357.403,323.983139C394.372,323.983139,427.98,334.3061,456.307,352.4942C511.04,387.3956,529.284,435.078,546.568,496.524C554.25,524.052,560.972,550.105,574.415,573.2090000000001C584.4970000000001,591.8879999999999,598.9010000000001,607.619,617.145,617.942C624.347,622.366,632.509,625.807,640.6700000000001,627.773C649.313,630.231,657.9549999999999,631.2139999999999,667.077,631.2139999999999C729.492,631.2139999999999,775.102,574.684,775.102,512.746C775.102,450.808,729.492,394.2776,667.077,394.2776C625.307,394.2776,591.219,419.3476,573.4549999999999,454.741C560.972,430.654,547.048,406.5668,531.685,382.4799C563.852,345.1206,611.383,323,666.597,323C772.222,323,850,404.6005,850,512.254Z" fill="url(#master_svg1_27_16051)" fill-opacity="1"/></g></g></svg>