<svg xmlns="http://www.w3.org/2000/svg" xmlns:xlink="http://www.w3.org/1999/xlink" fill="none" version="1.1" width="32" height="32" viewBox="0 0 32 32"><defs><clipPath id="master_svg0_2_0626"><rect x="0" y="0" width="32" height="32" rx="0"/></clipPath></defs><g clip-path="url(#master_svg0_2_0626)"><g><path d="M28.6232,23.0028L18.8382,6.33581C17.7777,4.554729,15.1986,4.554729,14.1382,6.33581L4.357187,23.0028C3.87737,23.8341,3.881207,24.859,4.367232,25.6866C4.853258,26.5143,5.7465,27.0169,6.706189999999999,27.0028L26.2742,27.0028C27.2339,27.0169,28.1271,26.5143,28.6131,25.6866C29.0992,24.859,29.103,23.8341,28.6232,23.0028ZM16.4902,24.0028C15.6618,24.0028,14.9902,23.3312,14.9902,22.5028C14.9902,21.6744,15.6618,21.0028,16.4902,21.0028C17.3186,21.0028,17.9902,21.6744,17.9902,22.5028C17.9902,23.3312,17.3186,24.0028,16.4902,24.0028ZM17.9902,18.5028C17.9902,19.331200000000003,17.3186,20.0028,16.4902,20.0028C15.6618,20.0028,14.9902,19.331200000000003,14.9902,18.5028L14.9902,10.50281C14.9902,9.674389999999999,15.6618,9.00281,16.4902,9.00281C17.3186,9.00281,17.9902,9.674389999999999,17.9902,10.50281L17.9902,18.5028Z" fill="#FF6F00" fill-opacity="1"/></g></g></svg>