<svg xmlns="http://www.w3.org/2000/svg" xmlns:xlink="http://www.w3.org/1999/xlink" fill="none" version="1.1" width="32" height="32" viewBox="0 0 32 32"><defs><clipPath id="master_svg0_2_0640"><rect x="0" y="0" width="32" height="32" rx="0"/></clipPath></defs><g clip-path="url(#master_svg0_2_0640)"><g><path d="M16.5,4C9.596440000000001,4,4,9.596440000000001,4,16.5C4,23.4036,9.596440000000001,29,16.5,29C23.4036,29,29,23.4036,29,16.5C29,9.596440000000001,23.4036,4,16.5,4ZM16.5,9C17.328400000000002,9,18,9.67157,18,10.5C18,11.32843,17.328400000000002,12,16.5,12C15.6716,12,15,11.32843,15,10.5C15,9.67157,15.6716,9,16.5,9ZM15,14.5C15,13.67157,15.6716,13,16.5,13C17.328400000000002,13,18,13.67157,18,14.5L18,22.5C18,23.3284,17.328400000000002,24,16.5,24C15.6716,24,15,23.3284,15,22.5L15,14.5Z" fill="#0066FF" fill-opacity="1"/></g></g></svg>