<?xml version="1.0" encoding="UTF-8"?>
<!-- Generated by Pixelmator Pro 3.5.8 -->
<svg width="38" height="45" viewBox="0 0 38 45" xmlns="http://www.w3.org/2000/svg">
    <g id="notificationslicingcomplete">
        <path id="path1" fill="#0066ff" stroke="none" d="M 18.5 1 C 11.596441 1 6 6.596443 6 13.5 C 6 20.403559 11.596441 26 18.5 26 C 25.403559 26 31 20.403559 31 13.5 C 31 6.596443 25.403559 1 18.5 1 Z M 25.356001 11.192001 L 17.450001 17.660999 C 17.367365 17.719345 17.278889 17.768946 17.186001 17.809 C 17.135912 17.8416 17.083807 17.870993 17.029999 17.896999 C 16.861176 17.962091 16.681934 17.995975 16.500999 17.997 L 16.500999 17.997 C 16.324078 17.994818 16.148975 17.960949 15.984 17.896999 C 15.962 17.889 15.94 17.884001 15.918 17.875 C 15.756782 17.805094 15.60918 17.707256 15.482 17.586 C 15.47 17.573999 15.454 17.570999 15.441 17.559 L 12.441 14.559 C 11.855026 13.973026 11.855026 13.022974 12.441 12.437 C 13.026974 11.851025 13.977026 11.851025 14.563 12.437 L 16.603001 14.477001 L 23.457001 8.869999 C 24.098202 8.345329 25.043329 8.439796 25.568001 9.081001 C 26.09267 9.722202 25.998203 10.667328 25.357 11.192001 Z"/>
        <linearGradient id="linearGradient1" x1="35.071814" y1="35" x2="3" y2="35" gradientUnits="userSpaceOnUse">
            <stop offset="1e-05" stop-color="#00cbff" stop-opacity="1"/>
            <stop offset="1" stop-color="#6850ff" stop-opacity="1"/>
        </linearGradient>
        <path id="--2" fill="url(#linearGradient1)" stroke="none" d="M 35.071815 34.988358 C 35.071815 40.031151 31.31341 43.953323 26.370522 43.953323 C 24.593819 43.953323 22.976561 43.439709 21.632633 42.575912 C 19.332043 41.081715 18.352568 39.09729 17.623657 36.505844 C 17.168085 34.941628 16.872002 33.447475 16.097534 32.140083 C 15.61915 31.252899 14.935802 30.50584 14.070259 30.015568 C 13.728567 29.80545 13.341356 29.642025 12.9541 29.548641 C 12.544085 29.43191 12.134068 29.385216 11.701293 29.385216 C 8.740115 29.385216 6.576187 32.070068 6.576187 35.011692 C 6.576187 37.95332 8.717356 40.638168 11.701293 40.638168 C 13.683003 40.638168 15.300255 39.447472 16.143045 37.789898 C 16.73531 38.933865 17.395897 40.077831 18.1248 41.221794 C 16.553061 42.94944 14.32078 44 11.701293 44 C 6.690074 44 3 40.124508 3 35.035034 C 3 29.992222 6.758412 26.046694 11.701293 26.046694 C 13.455236 26.046694 15.04969 26.536964 16.393618 27.400782 C 18.990343 29.058369 19.855938 31.322966 20.675919 34.241253 C 21.040422 35.548645 21.35931 36.786015 21.997086 37.883305 C 22.475424 38.770443 23.158764 39.51754 24.024359 40.007813 C 24.366007 40.217915 24.753263 40.381336 25.140474 40.474697 C 25.550489 40.591442 25.960506 40.638168 26.393274 40.638168 C 29.35446 40.638168 31.518417 37.95332 31.518417 35.011692 C 31.518417 32.070068 29.35446 29.385216 26.393274 29.385216 C 24.411572 29.385216 22.794313 30.575878 21.951529 32.256828 C 21.35931 31.112865 20.698723 29.968872 19.969818 28.824909 C 21.495949 27.050587 23.751028 26 26.370522 26 C 31.381725 26 35.071815 29.875492 35.071815 34.988358 Z"/>
    </g>
</svg>
