<?xml version="1.0" encoding="UTF-8"?>
<!-- Generated by Pixelmator Pro 3.5.8 -->
<svg width="37" height="46" viewBox="0 0 37 46" xmlns="http://www.w3.org/2000/svg">
    <g id="question">
        <linearGradient id="linearGradient1" x1="34.071814" y1="35" x2="2" y2="35" gradientUnits="userSpaceOnUse">
            <stop offset="1e-05" stop-color="#00cbff" stop-opacity="1"/>
            <stop offset="1" stop-color="#6850ff" stop-opacity="1"/>
        </linearGradient>
        <path id="--2" fill="url(#linearGradient1)" stroke="none" d="M 34.071815 34.988358 C 34.071815 40.031151 30.31341 43.953323 25.370522 43.953323 C 23.593819 43.953323 21.976561 43.439709 20.632633 42.575912 C 18.332043 41.081715 17.352568 39.09729 16.623657 36.505844 C 16.168085 34.941628 15.872001 33.447475 15.097533 32.140083 C 14.61915 31.252899 13.935802 30.50584 13.070259 30.015568 C 12.728567 29.80545 12.341356 29.642027 11.9541 29.548641 C 11.544085 29.43191 11.134068 29.385218 10.701293 29.385218 C 7.740115 29.385218 5.576187 32.070068 5.576187 35.011692 C 5.576187 37.95332 7.717356 40.638168 10.701293 40.638168 C 12.683003 40.638168 14.300255 39.447472 15.143045 37.789898 C 15.73531 38.933865 16.395897 40.077831 17.1248 41.221794 C 15.553061 42.94944 13.32078 44 10.701293 44 C 5.690074 44 2 40.124508 2 35.035034 C 2 29.992222 5.758412 26.046694 10.701293 26.046694 C 12.455236 26.046694 14.04969 26.536964 15.393618 27.400782 C 17.990343 29.058369 18.855938 31.322966 19.675919 34.241253 C 20.040422 35.548645 20.35931 36.786015 20.997086 37.883305 C 21.475424 38.770443 22.158764 39.51754 23.024359 40.007813 C 23.366007 40.217915 23.753263 40.381336 24.140474 40.474697 C 24.550489 40.591442 24.960506 40.638168 25.393274 40.638168 C 28.35446 40.638168 30.518417 37.95332 30.518417 35.011692 C 30.518417 32.070068 28.35446 29.385218 25.393274 29.385218 C 23.411572 29.385218 21.794313 30.575878 20.951529 32.256828 C 20.35931 31.112865 19.698723 29.968874 18.969818 28.824909 C 20.495949 27.050587 22.751028 26 25.370522 26 C 30.381725 26 34.071815 29.875492 34.071815 34.988358 Z"/>
        <path id="path1" fill="#ff6f00" stroke="none" d="M 17.5 26 C 24.403559 26 30 20.403559 30 13.5 C 30 6.596443 24.403559 1 17.5 1 C 10.596441 1 5 6.596443 5 13.5 C 5 20.403559 10.596441 26 17.5 26 Z M 17.5 21 C 16.671574 21 16 20.328426 16 19.5 C 16 18.671574 16.671574 18 17.5 18 C 18.328426 18 19 18.671574 19 19.5 C 19 20.328426 18.328426 21 17.5 21 Z M 17.5 16.75 C 16.809643 16.75 16.25 16.190357 16.25 15.5 C 16.323368 14.307703 16.969067 13.224583 17.983 12.593002 C 18.814999 11.913002 19.25 11.512001 19.25 10.5 C 19.25 9.533501 18.466499 8.75 17.5 8.75 C 16.533501 8.75 15.75 9.533501 15.75 10.5 C 15.75 11.190357 15.190356 11.75 14.5 11.75 C 13.809644 11.75 13.25 11.190357 13.25 10.5 C 13.25 8.15279 15.15279 6.25 17.5 6.25 C 19.84721 6.25 21.75 8.15279 21.75 10.5 C 21.739853 12.123775 20.91975 13.635303 19.563999 14.528999 C 18.934 15.043999 18.75 15.234001 18.75 15.5 C 18.75 16.190357 18.190357 16.75 17.5 16.75 Z"/>
    </g>
</svg>
