<?xml version="1.0" encoding="UTF-8"?>
<!-- Generated by Pixelmator Pro 3.5.8 -->
<svg width="480" height="480" viewBox="0 0 480 480" xmlns="http://www.w3.org/2000/svg">
    <g id="g1">
        <linearGradient id="linearGradient1" x1="431.850791" y1="148.000001" x2="300" y2="148.000001" gradientUnits="userSpaceOnUse">
            <stop offset="1e-05" stop-color="#00cbff" stop-opacity="1"/>
            <stop offset="1" stop-color="#6850ff" stop-opacity="1"/>
        </linearGradient>
        <path id="path1" fill="url(#linearGradient1)" stroke="none" d="M 431.8508 147.952118 C 431.8508 168.683624 416.399567 184.808105 396.078796 184.808105 C 388.774597 184.808105 382.125854 182.696594 376.60083 179.145416 C 367.142853 173.002594 363.116119 164.844421 360.119476 154.190704 C 358.246582 147.76004 357.029327 141.617401 353.845428 136.242554 C 351.878723 132.595245 349.069397 129.524017 345.511078 127.508453 C 344.106323 126.644623 342.514465 125.972778 340.922424 125.588867 C 339.236786 125.108948 337.551178 124.916992 335.771973 124.916992 C 323.598267 124.916992 314.702087 135.954712 314.702087 148.048065 C 314.702087 160.141418 323.504669 171.179138 335.771973 171.179138 C 343.919006 171.179138 350.567719 166.284058 354.032532 159.469574 C 356.467377 164.172546 359.183136 168.875519 362.179749 173.578491 C 355.71814 180.68103 346.540985 185 335.771973 185 C 315.170319 185 300 169.067413 300 148.144012 C 300 127.412476 315.451263 111.191956 335.771973 111.191956 C 342.982635 111.191956 349.537628 113.20752 355.062653 116.758759 C 365.738068 123.573303 369.296631 132.883301 372.667664 144.880707 C 374.166168 150.255554 375.477173 155.342499 378.099121 159.853577 C 380.065643 163.500702 382.874908 166.572113 386.433472 168.587677 C 387.838043 169.451416 389.430084 170.12326 391.021942 170.50708 C 392.707581 170.98703 394.393188 171.179138 396.172363 171.179138 C 408.3461 171.179138 417.242371 160.141418 417.242371 148.048065 C 417.242371 135.954712 408.3461 124.916992 396.172363 124.916992 C 388.02536 124.916992 381.376617 129.811951 377.911835 136.722534 C 375.477173 132.019562 372.761414 127.316467 369.764801 122.613525 C 376.03891 115.319092 385.309784 111 396.078796 111 C 416.68042 111 431.8508 126.932587 431.8508 147.952118 Z"/>
    </g>
    <g id="g2">
        <path id="path2" fill="#0036ff" fill-rule="evenodd" stroke="none" d="M 181.732269 125.519836 C 181.732269 125.519836 181.732269 140.717194 181.732269 140.717194 C 181.732269 140.717194 212.804245 140.717194 212.804245 140.717194 C 212.804245 140.717194 212.804245 154.269196 212.804245 154.269196 C 212.804245 154.269196 181.732269 154.269196 181.732269 154.269196 C 181.732269 154.269196 181.732269 170.43457 181.732269 170.43457 C 181.732269 170.43457 219.981903 170.43457 219.981903 170.43457 C 219.981903 170.43457 219.981903 183.986359 219.981903 183.986359 C 219.981903 183.986359 167.471298 183.986359 167.471298 183.986359 C 167.471298 183.986359 167.471298 183.308777 167.471298 183.308777 C 167.471298 159.689911 167.471298 136.167816 167.471298 112.548767 C 167.471298 112.548767 167.471298 111.871185 167.471298 111.871185 C 167.471298 111.871185 219.981903 111.871185 219.981903 111.871185 C 219.981903 111.871185 219.981903 125.423035 219.981903 125.423035 C 219.981903 125.423035 181.732269 125.423035 181.732269 125.423035 C 181.732269 125.423035 181.732269 125.519836 181.732269 125.519836 Z M 62.166538 125.519836 C 62.166538 125.519836 62.166538 140.717194 62.166538 140.717194 C 62.166538 140.717194 93.238586 140.717194 93.238586 140.717194 C 93.238586 140.717194 93.238586 154.269196 93.238586 154.269196 C 93.238586 154.269196 62.166538 154.269196 62.166538 154.269196 C 62.166538 154.269196 62.166538 170.43457 62.166538 170.43457 C 62.166538 170.43457 100.416252 170.43457 100.416252 170.43457 C 100.416252 170.43457 100.416252 183.986359 100.416252 183.986359 C 100.416252 183.986359 48 183.986359 48 183.986359 C 48 183.986359 48 183.308777 48 183.308777 C 48 159.786682 48 136.167816 48 112.645599 C 48 112.645599 48 111.871185 48 111.871185 C 48 111.871185 100.510605 111.871185 100.510605 111.871185 C 100.510605 111.871185 100.510605 125.423035 100.510605 125.423035 C 100.510605 125.423035 62.166538 125.423035 62.166538 125.423035 C 62.166538 125.423035 62.166538 125.519836 62.166538 125.519836 Z M 124.310547 170.43457 C 124.310547 170.43457 160.387985 170.43457 160.387985 170.43457 C 160.387985 170.43457 160.387985 183.986359 160.387985 183.986359 C 160.387985 183.986359 110.143929 183.986359 110.143929 183.986359 C 110.143929 183.986359 110.143929 183.308777 110.143929 183.308777 C 110.143929 159.689911 110.143929 136.167816 110.143929 112.548767 C 110.143929 112.548767 110.143929 111.871185 110.143929 111.871185 C 110.143929 111.871185 124.310547 111.871185 124.310547 111.871185 C 124.310547 111.871185 124.310547 170.43457 124.310547 170.43457 Z M 277.970154 156.108215 C 277.970154 156.108215 257.00473 156.108215 257.00473 156.108215 C 257.00473 156.108215 257.00473 143.524506 257.00473 143.524506 C 257.00473 143.524506 292.41925 143.524506 292.41925 143.524506 C 292.41925 143.524506 292.41925 184.08316 292.41925 184.08316 C 292.41925 184.08316 280.332092 184.08316 280.332092 184.08316 C 280.332092 184.08316 280.332092 174.887207 280.332092 174.887207 C 275.515717 181.856842 268.053772 184.470428 259.553711 184.954285 C 250.770004 185.438324 241.987289 182.050385 235.376144 176.145599 C 227.726303 169.176178 223.948456 159.592926 223.948456 149.235565 C 223.948456 127.746216 237.737259 111 259.175507 111 C 267.770111 111 275.70282 113.710358 282.221191 119.421509 C 284.675659 121.551056 287.697449 124.939056 289.208344 127.939819 C 289.208344 127.939819 289.492035 128.520599 289.492035 128.520599 C 289.492035 128.520599 277.402832 136.458099 277.402832 136.458099 C 277.402832 136.458099 277.026611 135.780518 277.026611 135.780518 C 271.170135 123.680664 254.642807 121.260681 245.387314 130.650177 C 241.231628 134.812622 238.492905 141.491547 238.492905 147.493073 C 238.492905 152.526733 240.003998 158.237762 242.648376 162.49704 C 246.426025 168.498596 252.18634 171.305725 259.175507 171.305725 C 268.997345 171.112152 275.421173 165.013855 277.970154 156.108215 Z"/>
    </g>
    <linearGradient id="linearGradient2" x1="36.665074" y1="304.674435" x2="476.996636" y2="304.630485" gradientUnits="userSpaceOnUse">
        <stop offset="0" stop-color="#0084ff" stop-opacity="1"/>
        <stop offset="0.622664" stop-color="#5c1fff" stop-opacity="1"/>
        <stop offset="1" stop-color="#00a3ff" stop-opacity="1"/>
    </linearGradient>
    <path id="--4" fill="url(#linearGradient2)" stroke="none" d="M 386.521484 289.539063 C 383.309174 289.539063 380.705078 286.934967 380.705078 283.722656 L 380.705078 254.449219 C 380.835693 235.27565 396.404175 219.795746 415.578125 219.771484 L 421.394531 219.771484 C 424.606842 219.771484 427.210938 222.37558 427.210938 225.587891 C 427.210938 228.800201 424.606842 231.404297 421.394531 231.404297 L 421.400391 231.398438 L 415.583984 231.398438 C 402.826141 231.409485 392.455383 241.691956 392.337891 254.449219 L 392.337891 283.722656 C 392.337891 286.934967 389.733795 289.539063 386.521484 289.539063 Z M 338.035156 289.535156 C 318.772308 289.535156 303.15625 273.919128 303.15625 254.65625 C 303.15625 235.393372 318.772308 219.777344 338.035156 219.777344 L 351.925781 219.777344 L 351.925781 219.767578 C 355.137726 219.767578 357.742188 222.370087 357.742188 225.582031 C 357.742188 228.793976 355.137726 231.398438 351.925781 231.398438 L 338.035156 231.398438 C 329.560608 231.142868 321.617432 235.518829 317.304688 242.818359 C 312.991882 250.117813 312.991882 259.184937 317.304688 266.484375 C 321.617432 273.783905 329.560608 278.157898 338.035156 277.902344 L 351.925781 277.902344 C 355.137726 277.902344 357.742188 280.506805 357.742188 283.71875 C 357.742188 286.930695 355.137726 289.535156 351.925781 289.535156 L 338.035156 289.535156 Z M 335.029297 260.474609 C 331.817322 260.474609 329.212891 257.870148 329.212891 254.658203 C 329.212891 251.446259 331.817322 248.84375 335.029297 248.84375 L 351.925781 248.84375 C 355.137726 248.84375 357.742188 251.446259 357.742188 254.658203 C 357.742188 257.870148 355.137726 260.474609 351.925781 260.474609 L 335.029297 260.474609 Z M 276.841034 274.251221 C 267.128479 280.688049 254.169189 278.932556 246.505737 270.142029 C 238.8423 261.35141 238.83342 248.231262 246.484924 239.430206 C 254.136429 230.629135 267.093353 228.856018 276.814606 235.279556 C 279.118927 236.836472 282.198151 236.545639 284.172394 234.58461 L 284.172394 234.58461 C 285.400238 233.368103 286.023926 231.665787 285.873596 229.940979 C 285.723358 228.216187 284.814728 226.648346 283.395111 225.663986 C 268.868011 215.929321 249.403915 218.477325 237.852722 231.625809 C 226.301468 244.774368 226.225616 264.468231 237.675262 277.705811 C 249.124878 290.943512 268.568756 293.642334 283.17038 284.020569 C 284.655914 283.06488 285.632202 281.487427 285.827179 279.727661 C 286.022217 277.967957 285.415131 276.213837 284.175049 274.954102 L 284.175049 274.954102 C 282.20871 272.99826 279.140839 272.704254 276.841034 274.251221 Z M 201.88269 219.770996 C 198.670517 219.770996 196.066528 222.375 196.066528 225.587189 L 196.066528 283.722534 C 196.066528 286.934723 198.670517 289.538757 201.88269 289.538757 C 205.094894 289.538757 207.698883 286.934723 207.698883 283.722534 L 207.698883 225.584534 C 207.697418 222.373383 205.093842 219.770996 201.88269 219.770996 Z M 169.007538 277.900879 L 152.222443 277.900879 C 144.193176 277.900879 137.684174 271.391846 137.684174 263.362579 L 137.684174 225.584259 C 137.684174 222.372559 135.080582 219.769012 131.868866 219.769012 C 128.657166 219.769012 126.053574 222.372559 126.053574 225.584259 L 126.053574 263.36792 C 126.063782 277.811218 137.76593 289.519287 152.209244 289.536774 L 169.007538 289.536774 C 172.219238 289.536774 174.82283 286.933228 174.82283 283.721497 C 174.82283 280.509827 172.219238 277.906189 169.007538 277.906189 Z M 85.840126 289.53775 L 57.678181 289.53775 C 54.533722 289.47052 52.01976 286.902161 52.01976 283.75708 C 52.01976 280.611877 54.533722 278.043579 57.678181 277.976379 L 85.840126 277.976379 C 89.009956 278.031372 91.96283 276.371826 93.563866 273.635437 C 95.164856 270.899109 95.164856 267.51178 93.563866 264.775513 C 91.96283 262.039124 89.009956 260.379578 85.840126 260.434601 L 72.229759 260.434601 C 61.090984 260.307617 52.127998 251.241821 52.127998 240.102325 C 52.127998 228.96283 61.090984 219.897064 72.229759 219.769989 L 95.246834 219.769989 C 98.391289 219.83728 100.905251 222.405579 100.905251 225.550751 C 100.905251 228.695847 98.391289 231.26416 95.246834 231.331436 L 72.229759 231.331436 C 69.059921 231.276413 66.107048 232.935989 64.506012 235.672348 C 62.905022 238.40863 62.905022 241.795944 64.506012 244.532318 C 66.107048 247.268677 69.059921 248.928238 72.229759 248.873215 L 85.840126 248.873215 C 96.978935 249.000214 105.941887 258.065979 105.941887 269.205475 C 105.941887 280.344971 96.978935 289.410767 85.840126 289.53775 Z"/>
</svg>
