<?xml version="1.0" encoding="UTF-8"?>
<!-- Generated by Pixelmator Pro 3.5.8 -->
<svg width="1024" height="1024" viewBox="0 0 1024 1024" xmlns="http://www.w3.org/2000/svg">
    <g id="-">
        <linearGradient id="linearGradient1" x1="953.756656" y1="512.000006" x2="70" y2="512.000006" gradientUnits="userSpaceOnUse">
            <stop offset="1e-05" stop-color="#00cbff" stop-opacity="1"/>
            <stop offset="1" stop-color="#6850ff" stop-opacity="1"/>
        </linearGradient>
        <path id="path1" fill="url(#linearGradient1)" stroke="none" d="M 953.756653 511.679138 C 953.756653 650.63623 850.191711 758.713745 713.987732 758.713745 C 665.029663 758.713745 620.46521 744.560913 583.432556 720.758545 C 520.038513 679.584961 493.048523 624.903076 472.962982 553.494385 C 460.409454 510.391541 452.250702 469.21936 430.909821 433.19342 C 417.727692 408.746521 398.897675 388.16095 375.04715 374.651184 C 365.631622 368.861267 354.961823 364.358032 344.290771 361.784729 C 332.992554 358.568176 321.694336 357.281555 309.768982 357.281555 C 228.172073 357.281555 168.543808 431.264099 168.543808 512.322205 C 168.543808 593.380371 227.544907 667.362854 309.768982 667.362854 C 364.376099 667.362854 408.940338 634.552612 432.16391 588.877197 C 448.48407 620.399841 466.68692 651.922485 486.772278 683.445068 C 443.462128 731.051208 381.950378 760 309.768982 760 C 171.682037 760 70 653.208679 70 512.965332 C 70 374.007874 173.56514 265.286621 309.768982 265.286621 C 358.099823 265.286621 402.035919 278.796326 439.068573 302.599304 C 510.622803 348.275085 534.474731 410.677307 557.069763 491.092285 C 567.113831 527.118225 575.901001 561.2146 593.47522 591.45105 C 606.656128 615.896606 625.485962 636.483337 649.337891 649.993042 C 658.752197 655.782471 669.423279 660.285767 680.093079 662.858276 C 691.391296 666.075317 702.689514 667.362854 714.614685 667.362854 C 796.211792 667.362854 855.84082 593.380371 855.84082 512.322205 C 855.84082 431.264099 796.211792 357.281555 714.614685 357.281555 C 660.007751 357.281555 615.443298 390.090881 592.21991 436.4104 C 575.901001 404.887817 557.69812 373.364502 537.612793 341.841919 C 579.666138 292.949463 641.806091 264 713.987732 264 C 852.074219 264 953.756653 370.791321 953.756653 511.679138 Z"/>
    </g>
</svg>
