<?xml version="1.0" encoding="UTF-8"?>
<!-- Generated by Pixelmator Pro 3.5.8 -->
<svg width="162" height="163" viewBox="0 0 162 163" xmlns="http://www.w3.org/2000/svg">
    <linearGradient id="linearGradient1" x1="82.002083" y1="162.73323" x2="82.002083" y2="0.310087" gradientUnits="userSpaceOnUse">
        <stop offset="0" stop-color="#1c70f2" stop-opacity="1"/>
        <stop offset="1" stop-color="#1ac9fb" stop-opacity="1"/>
    </linearGradient>
    <path id="edit" fill="url(#linearGradient1)" stroke="none" d="M 159.199997 30.199997 C 158.133326 31.399999 157.133326 32.466665 156.199997 33.399994 L 153.800003 35.800003 C 153.000005 36.600001 152.266673 37.266668 151.600006 37.800003 L 124.600006 10.600006 C 125.666667 9.533335 127 8.266668 128.600006 6.800003 C 130.200002 5.333338 131.53333 4.200002 132.599991 3.399994 C 135.266668 1.266663 138.133336 0.333333 141.199997 0.600006 C 144.266658 0.866669 146.733322 1.466665 148.599991 2.399994 C 150.600001 3.466665 152.833338 5.333333 155.300003 8 C 157.766668 10.666667 159.666667 13.466665 161 16.399994 C 161.666667 18.266663 162.100001 20.466665 162.300003 23 C 162.500005 25.533335 161.46667 27.933334 159.199997 30.199997 Z M 82.799995 52.399994 L 113.800003 21.399994 L 140.800003 48.399994 C 129.46667 59.733332 119.133336 70 109.800003 79.199997 C 105.800003 83.066666 101.899999 86.899999 98.099991 90.699997 C 94.299998 94.5 90.833333 97.899999 87.699997 100.899994 C 84.566671 103.899999 82.000003 106.400002 79.999992 108.400002 L 76.400009 112 C 75.46667 112.933329 74.399999 113.866664 73.199997 114.800003 C 72 115.733332 70.666667 116.533333 69.199997 117.200005 C 67.733332 117.866671 65.699999 118.666669 63.099998 119.599998 C 60.499997 120.533338 57.799998 121.433339 55 122.300003 C 52.200002 123.166662 49.533335 123.96666 47 124.699997 C 44.466665 125.433334 42.53333 125.866669 41.199997 126 C 38.666667 126.266663 37.300001 126.03333 37.099998 125.300003 C 36.899996 124.566666 36.999997 122.933332 37.400002 120.400002 C 37.533333 119.066668 37.866666 117.100001 38.400002 114.5 C 38.933337 111.899999 39.46667 109.266665 40 106.599998 C 40.533335 103.933337 41.100001 101.433334 41.699997 99.099991 C 42.299998 96.766663 42.799998 95.133334 43.199997 94.200005 C 43.866664 92.733335 44.566666 91.466667 45.300003 90.400002 C 46.033335 89.333336 47.066668 88.133334 48.400002 86.799995 Z M 150.600006 81.400002 C 153.400004 81.400002 156.066666 82.066668 158.599991 83.400002 C 161.133326 84.73333 162.399994 87.466662 162.399994 91.599998 L 162.399994 137 C 162.399994 140.733337 161.699997 144.166672 160.300003 147.300003 C 158.899999 150.433334 157 153.166667 154.600006 155.5 C 152.200002 157.833333 149.466665 159.633331 146.399994 160.899994 C 143.333333 162.166667 140.200002 162.800003 137 162.800003 L 25.400002 162.800003 C 22.199999 162.800003 19.066666 162.100001 16 160.699997 C 12.933332 159.299993 10.233332 157.399994 7.900002 155 C 5.566667 152.599996 3.666667 149.766663 2.200001 146.5 C 0.733334 143.233337 0 139.733337 0 136 L 0 24.600006 C 0 21.933339 0.733334 19.166672 2.200001 16.300003 C 3.666667 13.433334 5.566667 10.833333 7.900002 8.5 C 10.233332 6.166667 12.866665 4.233332 15.799999 2.699997 C 18.733334 1.166662 21.666667 0.399994 24.599998 0.399994 L 71.200005 0.399994 C 74.933337 0.399994 77.566668 1.766663 79.099998 4.5 C 80.633334 7.233337 81.400002 10.000005 81.400002 12.800003 C 81.400002 15.600001 80.633334 18.299998 79.099998 20.899994 C 77.566668 23.5 74.933337 24.800003 71.200005 24.800003 L 34.600002 24.800003 C 31.800002 24.800003 29.533334 25.766668 27.799999 27.699997 C 26.066664 29.633336 25.199997 32.000005 25.199997 34.800003 L 25.199997 128.800003 C 25.199997 131.46666 26.066664 133.699992 27.799999 135.5 C 29.533334 137.299998 31.800002 138.199997 34.600002 138.199997 L 127.199997 138.199997 C 129.999995 138.199997 132.399994 137.299998 134.399994 135.5 C 136.399994 133.699992 137.399994 131.46666 137.399994 128.800003 L 137.399994 91.599998 C 137.399994 89.733335 137.833328 88.133334 138.699997 86.799995 C 139.566666 85.466667 140.633336 84.400002 141.900009 83.599998 C 143.166672 82.800001 144.566666 82.233335 146.099991 81.900002 C 147.633326 81.566668 149.133331 81.400002 150.600006 81.400002 Z"/>
</svg>
